<svg width="340" height="66" viewBox="0 0 340 66" fill="none" xmlns="http://www.w3.org/2000/svg">
<path d="M81.1309 41.3601H99.0709L90.1809 16.3901H90.0209L81.1309 41.3601ZM107.151 62.2801L102.621 50.6401H77.5709L73.1309 62.2801H62.7109L81.9409 13.4001L69.1709 11.7801V4.1001H111.751V11.7801L99.0609 13.4001L118.451 62.2801H107.141H107.151Z" fill="#F29100"/>
<path d="M24.0705 13.4001V52.9901H33.6005C43.7005 52.9901 52.2705 46.8501 52.2705 33.1901C52.2705 20.2601 43.7905 13.3901 33.6005 13.3901H24.0705V13.4001ZM62.7705 33.1901C62.7705 51.6901 49.7605 62.2801 33.6005 62.2801H13.5605V4.1001H33.6005C49.7605 4.1001 62.7705 14.6901 62.7705 33.1901Z" fill="#F29100"/>
<path d="M144.369 30.77H171.029V51.46C165.939 58.73 157.459 63.09 147.189 63.09C129.739 63.09 117.289 51.54 117.289 33.19C117.289 14.84 129.409 3.29004 146.619 3.29004C157.449 3.29004 166.659 8.62004 171.019 18.08L161.409 22.04C158.819 16.3 153.569 12.59 146.619 12.59C134.339 12.59 127.789 21.48 127.789 33.19C127.789 44.9 134.659 53.79 147.179 53.79C152.669 53.79 157.519 51.93 160.509 48.78V40.05H144.349V30.76L144.369 30.77Z" fill="#F29100"/>
<path d="M262.89 53.6499C260.49 53.6499 258.51 55.3499 258.51 57.9599C258.51 60.5699 260.49 62.2399 262.89 62.2399C265.29 62.2399 267.27 60.5899 267.27 57.9599C267.27 55.3299 265.27 53.6499 262.89 53.6499ZM262.89 55.0399C264.48 55.0399 265.7 56.2099 265.7 57.9599C265.7 59.7099 264.56 60.8499 262.89 60.8499C261.22 60.8499 260.08 59.7099 260.08 57.9599C260.08 56.3399 261.17 55.0399 262.89 55.0399Z" fill="#F29100"/>
<path d="M254.35 52.5C255.59 52.5 255.94 51.53 255.94 50.6H254.95C254.95 51.13 254.77 51.43 254.36 51.43C253.73 51.43 253.2 50.27 252.13 50.27C251.06 50.27 250.49 51.15 250.49 52.17H251.48C251.48 51.72 251.61 51.34 252.06 51.34C252.72 51.34 253.08 52.5 254.36 52.5" fill="#F29100"/>
<path d="M256.84 56.9599C256.84 54.7099 255.58 53.6599 253.93 53.6599C252.81 53.6599 251.85 54.0599 251.09 55.2999H251.06L250.89 53.8299H249.57V62.0899H251.14V57.3799C251.14 56.2599 252.11 55.0499 253.57 55.0499C254.74 55.0499 255.27 55.8799 255.27 56.9799V62.0799H256.84V56.9599Z" fill="#F29100"/>
<path d="M241.11 57.2499C241.31 55.6999 242.55 54.9499 243.74 54.9499C244.93 54.9499 246.12 55.6799 246.17 57.2499H241.12H241.11ZM246.18 59.4399C245.73 60.5299 244.69 60.9399 243.74 60.9399C242.53 60.9399 241.23 60.2299 241.08 58.4099H247.7C247.73 58.1899 247.75 57.9799 247.75 57.6699C247.75 55.0299 245.93 53.6599 243.75 53.6599C241.45 53.6599 239.49 55.3099 239.49 57.9199C239.49 60.5299 241.42 62.2499 243.75 62.2499C245.35 62.2499 246.87 61.4899 247.62 59.9899L246.18 59.4499V59.4399Z" fill="#F29100"/>
<path d="M231.28 59.9799C231.63 61.1699 232.75 62.2399 234.86 62.2399C236.83 62.2399 238.11 61.3299 238.11 59.6799C238.11 58.0299 236.8 57.5199 235.4 57.2499C234.21 57.0199 233.07 56.9199 233.07 56.0299C233.07 55.3199 233.78 54.9599 234.64 54.9599C236.08 54.9599 236.34 55.9699 236.47 56.5499L237.91 56.0399C237.65 54.8299 236.69 53.6599 234.64 53.6599C232.94 53.6599 231.5 54.4699 231.5 56.0599C231.5 57.5299 232.74 58.1399 234.29 58.4399C235.56 58.6999 236.54 58.8199 236.54 59.7599C236.54 60.4699 235.98 60.9499 234.89 60.9499C233.57 60.9499 232.97 60.2699 232.69 59.4499L231.27 59.9899L231.28 59.9799Z" fill="#F29100"/>
<path d="M223.261 57.2499C223.461 55.6999 224.701 54.9499 225.891 54.9499C227.081 54.9499 228.271 55.6799 228.321 57.2499H223.261ZM228.331 59.4399C227.881 60.5299 226.841 60.9399 225.881 60.9399C224.671 60.9399 223.371 60.2299 223.221 58.4099H229.841C229.871 58.1899 229.891 57.9799 229.891 57.6699C229.891 55.0299 228.071 53.6599 225.891 53.6599C223.591 53.6599 221.631 55.3099 221.631 57.9199C221.631 60.5299 223.561 62.2499 225.891 62.2499C227.491 62.2499 229.011 61.4899 229.761 59.9899L228.321 59.4499L228.331 59.4399Z" fill="#F29100"/>
<path d="M214.351 50.1799H210.391V62.0699H214.351C217.591 62.0699 220.111 59.6599 220.111 56.1199C220.111 52.5799 217.581 50.1699 214.351 50.1699M214.351 51.5699C216.701 51.5699 218.551 53.4199 218.551 56.1299C218.551 58.8399 216.701 60.6899 214.351 60.6899H211.951V51.5699H214.351Z" fill="#F29100"/>
<path d="M198.85 57.2499C199.05 55.6999 200.29 54.9499 201.48 54.9499C202.67 54.9499 203.86 55.6799 203.91 57.2499H198.86H198.85ZM203.92 59.4399C203.47 60.5299 202.43 60.9399 201.48 60.9399C200.27 60.9399 198.97 60.2299 198.82 58.4099H205.44C205.47 58.1899 205.49 57.9799 205.49 57.6699C205.49 55.0299 203.67 53.6599 201.49 53.6599C199.19 53.6599 197.23 55.3099 197.23 57.9199C197.23 60.5299 199.16 62.2499 201.49 62.2499C203.09 62.2499 204.61 61.4899 205.36 59.9899L203.92 59.4499V59.4399Z" fill="#F29100"/>
<path d="M191.1 55.0399C192.74 55.0399 193.84 56.2799 193.84 57.9599C193.84 59.6399 192.73 60.8499 191.1 60.8499C189.37 60.8499 188.39 59.5599 188.39 57.9599C188.39 56.3599 189.36 55.0399 191.1 55.0399ZM195.41 50.1799H193.84V55.2199H193.81C193.1 54.1999 192.11 53.6499 190.8 53.6499C188.54 53.6499 186.82 55.3499 186.82 57.9599C186.82 60.5699 188.57 62.2399 190.8 62.2399C192.25 62.2399 193.29 61.6299 193.89 60.5999H193.92L194.08 62.0699H195.4V50.1799H195.41Z" fill="#F29100"/>
<path d="M320.869 40.8C320.869 39.68 321.889 39.31 323.649 39.31C324.079 39.31 324.589 39.2899 324.819 39.1799V39.96C324.819 41.4 323.659 41.99 322.409 41.99C321.499 41.99 320.869 41.68 320.869 40.8ZM325.059 43.13H326.379V38.17C326.379 35.53 324.709 34.7 322.889 34.7C320.959 34.7 319.649 35.77 319.289 37.08L320.739 37.59C320.969 36.7 321.619 36.05 322.899 36.05C324.179 36.05 324.799 36.71 324.799 37.7C324.799 37.95 324.649 38.13 324.259 38.13C321.449 38.13 319.289 38.58 319.289 40.82C319.289 42.6 320.659 43.28 322.179 43.28C323.139 43.28 324.239 42.9799 324.859 42.0399H324.889L325.059 43.11V43.13Z" fill="#F29100"/>
<path d="M313.151 41.91C311.431 41.91 310.461 40.67 310.461 39C310.461 37.33 311.431 36.09 313.151 36.09C314.871 36.09 315.911 37.28 315.911 39C315.911 40.72 314.801 41.91 313.151 41.91ZM309.801 45.91C310.791 46.69 312.101 46.9299 313.271 46.9299C315.291 46.9299 317.481 46.12 317.481 42.92V34.88H316.161L315.991 36.35H315.961C315.371 35.34 314.311 34.71 312.871 34.71C310.641 34.71 308.891 36.38 308.891 39.02C308.891 41.66 310.611 43.3 312.871 43.3C314.171 43.3 315.171 42.77 315.881 41.75H315.911V42.97C315.911 44.95 314.621 45.6 313.271 45.6C312.431 45.6 311.401 45.3199 310.761 44.7899L309.801 45.91Z" fill="#F29100"/>
<path d="M300.88 38.31C301.08 36.76 302.32 36.0099 303.51 36.0099C304.7 36.0099 305.89 36.74 305.94 38.31H300.88ZM305.95 40.49C305.5 41.58 304.46 41.99 303.5 41.99C302.29 41.99 300.99 41.28 300.84 39.46H307.46C307.49 39.24 307.51 39.03 307.51 38.72C307.51 36.08 305.69 34.71 303.51 34.71C301.21 34.71 299.25 36.36 299.25 38.97C299.25 41.58 301.18 43.3 303.51 43.3C305.11 43.3 306.63 42.5399 307.38 41.0399L305.94 40.5L305.95 40.49Z" fill="#F29100"/>
<path d="M297.439 31.24H295.869V43.13H297.439V31.24Z" fill="#F29100"/>
<path d="M288.24 40.8C288.24 39.68 289.26 39.31 291.02 39.31C291.45 39.31 291.96 39.2899 292.19 39.1799V39.96C292.19 41.4 291.03 41.99 289.78 41.99C288.87 41.99 288.24 41.68 288.24 40.8ZM292.44 43.13H293.76V38.17C293.76 35.53 292.09 34.7 290.27 34.7C288.34 34.7 287.03 35.77 286.67 37.08L288.12 37.59C288.35 36.7 289 36.05 290.28 36.05C291.56 36.05 292.18 36.71 292.18 37.7C292.18 37.95 292.03 38.13 291.63 38.13C288.82 38.13 286.66 38.58 286.66 40.82C286.66 42.6 288.03 43.28 289.55 43.28C290.51 43.28 291.61 42.9799 292.23 42.0399H292.26L292.43 43.11L292.44 43.13Z" fill="#F29100"/>
<path d="M279.6 38.1901H283.43V40.2901C282.84 41.2001 281.63 41.9101 280.11 41.9101C277.45 41.9101 275.72 39.9401 275.72 37.1901C275.72 34.4401 277.36 32.4701 280.05 32.4701C281.83 32.4701 283.02 33.4901 283.54 34.6701L284.98 34.0901C284.2 32.3201 282.39 31.0801 280.06 31.0801C276.67 31.0801 274.16 33.4901 274.16 37.1901C274.16 40.8901 276.64 43.3001 280.12 43.3001C282.23 43.3001 283.95 42.3601 285.01 40.6701V36.8001H279.61V38.1901H279.6Z" fill="#F29100"/>
<path d="M269.549 38.0099C269.549 35.7599 268.289 34.71 266.639 34.71C265.519 34.71 264.559 35.11 263.799 36.35H263.769L263.599 34.88H262.279V43.14H263.849V38.4299C263.849 37.3099 264.819 36.1 266.279 36.1C267.449 36.1 267.979 36.93 267.979 38.03V43.13H269.549V38.0099Z" fill="#F29100"/>
<path d="M254.801 33.55H256.071L257.891 31.24H256.151L254.801 33.55Z" fill="#F29100"/>
<path d="M256.091 34.7C253.691 34.7 251.711 36.3999 251.711 39.0099C251.711 41.6199 253.691 43.2899 256.091 43.2899C258.491 43.2899 260.471 41.6399 260.471 39.0099C260.471 36.3799 258.471 34.7 256.091 34.7ZM256.091 36.09C257.681 36.09 258.901 37.2599 258.901 39.0099C258.901 40.7599 257.761 41.8999 256.091 41.8999C254.421 41.8999 253.281 40.7599 253.281 39.0099C253.281 37.3899 254.371 36.09 256.091 36.09Z" fill="#F29100"/>
<path d="M247.99 32.64C247.99 33.27 248.49 33.76 249.1 33.76C249.71 33.76 250.22 33.26 250.22 32.64C250.22 32.02 249.72 31.53 249.1 31.53C248.48 31.53 247.99 32.03 247.99 32.64Z" fill="#F29100"/>
<path d="M249.89 34.8701H248.32V43.1301H249.89V34.8701Z" fill="#F29100"/>
<path d="M245.23 40.5C244.83 41.36 243.96 41.8999 242.85 41.8999C241.28 41.8999 240.16 40.76 240.16 38.99C240.16 37.22 241.22 36.08 242.84 36.08C244.05 36.08 244.76 36.76 245.12 37.6L246.57 37.06C245.83 35.42 244.51 34.7 242.94 34.7C240.45 34.7 238.6 36.4999 238.6 39.0099C238.6 41.5199 240.48 43.2899 242.91 43.2899C244.53 43.2899 245.95 42.51 246.73 41.03L245.24 40.5H245.23Z" fill="#F29100"/>
<path d="M231.41 40.8C231.41 39.68 232.43 39.31 234.18 39.31C234.61 39.31 235.12 39.2899 235.35 39.1799V39.96C235.35 41.4 234.19 41.99 232.94 41.99C232.03 41.99 231.4 41.68 231.4 40.8M235.6 43.13H236.92V38.17C236.92 35.53 235.25 34.7 233.43 34.7C231.5 34.7 230.19 35.77 229.83 37.08L231.28 37.59C231.51 36.7 232.16 36.05 233.44 36.05C234.72 36.05 235.34 36.71 235.34 37.7C235.34 37.95 235.19 38.13 234.8 38.13C231.99 38.13 229.83 38.58 229.83 40.82C229.83 42.6 231.2 43.28 232.72 43.28C233.68 43.28 234.78 42.9799 235.4 42.0399H235.43L235.6 43.11V43.13Z" fill="#F29100"/>
<path d="M226.119 32.64C226.119 33.27 226.619 33.76 227.229 33.76C227.839 33.76 228.349 33.26 228.349 32.64C228.349 32.02 227.849 31.53 227.229 31.53C226.609 31.53 226.119 32.03 226.119 32.64Z" fill="#F29100"/>
<path d="M228.019 34.8701H226.449V43.1301H228.019V34.8701Z" fill="#F29100"/>
<path d="M223.361 40.5C222.961 41.36 222.091 41.8999 220.981 41.8999C219.411 41.8999 218.291 40.76 218.291 38.99C218.291 37.22 219.351 36.08 220.971 36.08C222.181 36.08 222.891 36.76 223.251 37.6L224.701 37.06C223.961 35.42 222.641 34.7 221.071 34.7C218.581 34.7 216.721 36.4999 216.721 39.0099C216.721 41.5199 218.601 43.2899 221.031 43.2899C222.651 43.2899 224.071 42.51 224.851 41.03L223.361 40.5Z" fill="#F29100"/>
<path d="M210.98 34.7C208.58 34.7 206.6 36.3999 206.6 39.0099C206.6 41.6199 208.58 43.2899 210.98 43.2899C213.38 43.2899 215.36 41.6399 215.36 39.0099C215.36 36.3799 213.36 34.7 210.98 34.7ZM210.98 36.09C212.57 36.09 213.79 37.2599 213.79 39.0099C213.79 40.7599 212.65 41.8999 210.98 41.8999C209.31 41.8999 208.17 40.7599 208.17 39.0099C208.17 37.3899 209.26 36.09 210.98 36.09Z" fill="#F29100"/>
<path d="M198.391 41.03C198.741 42.22 199.861 43.2899 201.971 43.2899C203.941 43.2899 205.221 42.3799 205.221 40.7299C205.221 39.0799 203.911 38.57 202.511 38.3C201.321 38.07 200.181 37.97 200.181 37.08C200.181 36.37 200.891 36.0099 201.751 36.0099C203.191 36.0099 203.451 37.02 203.581 37.6L205.021 37.09C204.761 35.88 203.801 34.71 201.751 34.71C200.051 34.71 198.611 35.52 198.611 37.11C198.611 38.58 199.851 39.19 201.401 39.49C202.671 39.75 203.651 39.87 203.651 40.81C203.651 41.52 203.091 42 202.001 42C200.681 42 200.081 41.32 199.801 40.5L198.381 41.0399L198.391 41.03Z" fill="#F29100"/>
<path d="M191.811 32.99H191.841L194.141 39.04H189.531L191.811 32.99ZM197.451 43.13L192.731 31.24H191.061L186.381 43.13H187.931L188.991 40.42H194.671L195.761 43.13H197.451Z" fill="#F29100"/>
</svg>
