<svg width="220" height="80" viewBox="0 0 220 80" fill="none" xmlns="http://www.w3.org/2000/svg">
<path d="M164.92 48.2999V42.1699C164.92 35.6899 148.03 41.4699 148.03 30.6999C148.03 26.0199 151.76 22.9299 158.34 22.9299C164.92 22.9299 168.7 26.4699 168.7 31.2999V31.4999H164.67C164.67 28.0599 162.33 26.5199 158.19 26.5199C154.05 26.5199 151.91 28.2099 151.91 30.5599C151.91 37.8399 168.8 31.4099 168.8 41.9699C168.8 44.7599 167.41 46.9499 164.91 48.2999M114.59 49.3899H111.7C106.12 49.3899 102.38 46.3999 102.38 40.5199V26.8699H97.99V23.2799H102.43V16.1499H106.42V40.3199C106.42 44.3099 108.22 45.6499 111.81 45.6499H114.6V49.3899H114.59ZM20.75 43.4599V47.3999C17.81 48.9399 15.86 49.6899 13.08 49.6899C8.54 49.6899 5.5 46.6999 5.5 42.4099C5.5 37.1799 9.54 34.5899 14.82 34.5899H20.75V38.1299H15.12C10.69 38.1299 9.59 40.2199 9.59 42.3099C9.59 44.5599 10.99 45.8999 13.43 45.8999C15.47 45.8999 17.22 45.2999 19.06 44.3499L20.76 43.4499L20.75 43.4599ZM81.2 37.9799H66V34.4899H77.36V33.6399C77.36 29.1099 74.72 26.5099 70.19 26.5099C68.54 26.5099 67.1 26.8599 66 27.5099V23.5699C67.24 23.1299 68.69 22.8699 70.19 22.8699C76.61 22.8699 81.2 27.1099 81.2 33.6399V37.9799Z" fill="#F19000"/>
<path d="M37.0504 49.3898H32.2704L39.9904 38.6798L42.2804 41.8198L37.0504 49.3898ZM93.0204 14.3098V15.2598C93.0204 16.6098 92.0204 17.4998 90.6204 17.4998C89.2204 17.4998 88.1804 16.6098 88.1804 15.2598V14.3098C88.1804 12.9698 89.1804 12.0698 90.6204 12.0698C92.0604 12.0698 93.0204 12.9698 93.0204 14.3098ZM161.84 45.6998V49.3898C160.69 49.5898 159.5 49.7398 158.15 49.7398C151.42 49.7398 147.38 46.1998 147.38 41.3698V41.1698H151.52C151.52 44.6098 154.01 46.1498 158.3 46.1498C159.69 46.1498 160.84 45.9998 161.84 45.6998ZM114.39 26.8698H109.51V23.2798H114.39V26.8698ZM92.6704 49.3898H88.5804V23.2798H92.6704V49.3898ZM81.1004 41.2698V41.4698C81.1004 46.3098 76.8704 49.7898 70.2404 49.7898C63.6104 49.7898 59.0304 46.1498 59.0304 39.9698V33.6398C59.0304 29.9998 60.4804 27.0598 62.9204 25.2198V39.6198C62.9204 44.1098 66.0604 46.1998 70.2404 46.1998C74.4204 46.1998 77.2704 44.7098 77.2704 41.2698H81.1104H81.1004ZM56.2804 49.3898H51.5004L32.5104 23.2798H37.3404L44.3704 33.2498L51.3404 23.2798H56.0304L46.8104 36.1398L56.2804 49.3998V49.3898ZM27.7804 49.3898H23.8404V32.7498C23.8404 28.4598 21.4004 26.3698 17.1604 26.3698C12.6804 26.3698 10.0904 28.2598 10.0904 32.0998H6.15039V31.8498C6.15039 26.1198 10.7404 22.7798 17.1104 22.7798C23.8404 22.7798 27.7804 26.4698 27.7804 32.4898V49.3898ZM137.47 47.5998V34.0398C137.47 29.2598 134.43 26.5698 130 26.5698C125.57 26.5698 122.52 29.2598 122.52 34.0398V38.7798C122.52 43.5098 125.56 46.2498 130 46.2498C131.69 46.2498 133.19 45.8598 134.38 45.1098V49.2498C133.03 49.6498 131.54 49.9498 130 49.9498C123.41 49.9498 118.58 45.7098 118.58 39.1798V33.6498C118.58 27.1198 123.41 22.8798 130 22.8798C136.59 22.8798 141.41 27.1098 141.41 33.6498V39.1798C141.41 42.8198 139.91 45.7598 137.47 47.6098" fill="#F19000"/>
<path d="M182.389 47.4L178.979 42.98C178.009 43.56 177.519 44.28 177.519 45.13C177.519 45.62 177.649 46.11 177.919 46.6C178.169 47.07 178.519 47.48 178.949 47.79C179.379 48.1 179.849 48.25 180.349 48.25C180.759 48.25 181.109 48.17 181.429 48.01C181.749 47.84 182.069 47.64 182.399 47.4M181.989 38.74C181.989 38.48 181.939 38.22 181.839 37.99C181.739 37.76 181.589 37.57 181.389 37.42C181.179 37.28 180.939 37.2 180.649 37.2C180.249 37.2 179.929 37.33 179.699 37.59C179.469 37.85 179.349 38.14 179.349 38.47C179.349 39.22 179.709 40.09 180.429 41.08C180.909 40.73 181.279 40.38 181.569 40.05C181.859 39.71 181.999 39.27 181.999 38.74M188.859 46.67C188.819 47.18 188.709 47.68 188.509 48.16C188.309 48.64 188.009 49.05 187.599 49.38C187.199 49.7 186.689 49.87 186.079 49.87C185.769 49.87 185.469 49.82 185.179 49.73C184.889 49.63 184.569 49.46 184.229 49.22C183.889 48.97 183.469 48.59 182.959 48.09C182.309 48.7 181.649 49.15 180.979 49.46C180.309 49.76 179.679 49.9 179.069 49.9C178.369 49.9 177.739 49.74 177.179 49.41C176.619 49.08 176.199 48.65 175.889 48.11C175.589 47.57 175.439 47 175.439 46.38C175.439 46.02 175.499 45.63 175.609 45.21C175.729 44.78 176.019 44.3 176.459 43.74C176.909 43.19 177.569 42.68 178.419 42.22C178.089 41.65 177.839 41.15 177.669 40.71C177.509 40.27 177.419 39.8 177.419 39.29C177.419 38.78 177.509 38.35 177.699 37.96C177.889 37.57 178.129 37.25 178.419 37.01C178.719 36.76 179.059 36.58 179.419 36.45C179.799 36.32 180.179 36.25 180.549 36.25C181.119 36.25 181.609 36.38 182.019 36.63C182.439 36.88 182.759 37.2 182.979 37.58C183.199 37.97 183.309 38.37 183.309 38.79C183.309 39.34 183.099 39.89 182.709 40.45C182.309 40.99 181.719 41.46 180.949 41.86L183.939 45.77C184.309 45.32 184.619 44.87 184.899 44.41C185.179 43.95 185.319 43.51 185.319 43.07C185.319 42.93 185.259 42.75 185.129 42.53C185.009 42.32 184.739 42.22 184.309 42.22V41.32H188.299V42.22C187.939 42.3 187.659 42.41 187.429 42.55C187.219 42.69 187.029 42.87 186.849 43.1C186.679 43.33 186.389 43.75 185.999 44.38L185.579 45.06C185.229 45.62 184.879 46.09 184.519 46.48C184.829 46.93 185.189 47.34 185.609 47.71C186.019 48.07 186.409 48.26 186.769 48.26C186.949 48.26 187.119 48.21 187.279 48.12C187.439 48.02 187.579 47.86 187.709 47.62C187.829 47.38 187.909 47.06 187.959 46.69H188.859V46.67Z" fill="#F19000"/>
<path d="M202.831 49.48H201.921C201.781 48.92 201.561 48.43 201.251 47.99C200.761 48.5 200.201 48.95 199.571 49.31C198.941 49.68 198.081 49.86 197.001 49.86C195.821 49.86 194.721 49.57 193.711 48.99C192.701 48.42 191.891 47.62 191.291 46.59C190.691 45.56 190.391 44.4 190.391 43.1C190.391 42.19 190.551 41.31 190.871 40.48C191.201 39.65 191.671 38.91 192.271 38.28C192.881 37.65 193.591 37.15 194.431 36.79C195.271 36.43 196.191 36.25 197.181 36.25C198.821 36.25 200.171 36.78 201.241 37.86C201.381 37.58 201.521 37.18 201.661 36.65H202.541L202.691 41.48H201.761C201.581 40.66 201.291 39.93 200.851 39.29C200.411 38.65 199.881 38.16 199.281 37.82C198.681 37.48 198.051 37.31 197.391 37.31C196.651 37.31 195.991 37.51 195.401 37.92C194.811 38.32 194.351 38.93 194.021 39.76C193.691 40.58 193.521 41.61 193.521 42.84C193.521 44.07 193.661 45.04 193.941 45.84C194.221 46.63 194.561 47.24 194.961 47.64C195.381 48.05 195.781 48.32 196.201 48.47C196.621 48.61 197.001 48.69 197.361 48.69C198.161 48.69 198.861 48.47 199.501 48.05C200.141 47.62 200.671 47.09 201.071 46.44C201.481 45.79 201.751 45.15 201.881 44.5H202.811V49.46L202.831 49.48Z" fill="#F19000"/>
<path d="M211.77 45.5701C211.77 44.4701 211.62 43.6401 211.34 43.1001C211.05 42.5401 210.48 42.2601 209.65 42.2601C209.11 42.2601 208.7 42.3801 208.39 42.6301C208.09 42.8701 207.89 43.2401 207.76 43.7601C207.66 44.2601 207.59 44.9201 207.59 45.7301C207.59 46.7201 207.72 47.5301 207.98 48.1401C208.25 48.7501 208.82 49.0601 209.72 49.0601C210.3 49.0601 210.75 48.8901 211.05 48.5501C211.37 48.2101 211.56 47.7901 211.64 47.2901C211.73 46.7901 211.78 46.2101 211.78 45.5801M214.44 45.6301C214.44 46.5201 214.23 47.2801 213.81 47.9301C213.38 48.5801 212.8 49.0901 212.07 49.4401C211.34 49.7801 210.55 49.9501 209.68 49.9501C208.87 49.9501 208.1 49.8001 207.36 49.4801C206.64 49.1601 206.05 48.6801 205.58 48.0401C205.12 47.3901 204.9 46.6001 204.9 45.6701C204.9 44.2701 205.38 43.2101 206.33 42.4801C207.29 41.7501 208.42 41.3901 209.74 41.3901C210.72 41.3901 211.56 41.5801 212.28 41.9701C212.99 42.3601 213.53 42.8701 213.89 43.5301C214.26 44.1801 214.44 44.8801 214.44 45.6401" fill="#F19000"/>
<path d="M70.6298 61.84C70.6298 63.21 70.3498 63.64 69.2598 63.64H67.1198V60.05H69.2798C70.2798 60.05 70.6298 60.3101 70.6298 61.8501M71.2498 68.16H72.5198L70.2998 64.5201C71.4698 64.2401 71.7698 63.34 71.7698 61.83C71.7698 60.18 71.4398 59.04 69.4098 59.04H66.0098V68.15H67.1198V64.6001H69.0798L71.2498 68.15V68.16Z" fill="#F19000"/>
<path d="M80.4595 63.2901C80.4595 60.5701 80.0095 58.9102 77.1195 58.9102C74.2295 58.9102 73.7695 60.5701 73.7695 63.2901V63.9301C73.7695 66.6501 74.2295 68.3102 77.1195 68.3102C80.0095 68.3102 80.4595 66.6501 80.4595 63.9301V63.2901ZM79.3195 63.8902C79.3195 66.1702 79.2195 67.3302 77.1295 67.3302C75.0395 67.3302 74.9295 66.1702 74.9295 63.8902V63.3302C74.9295 61.0502 75.0195 59.8902 77.1295 59.8902C79.2395 59.8902 79.3195 61.0502 79.3195 63.3302V63.8902Z" fill="#F19000"/>
<path d="M84.2804 68.1598H85.3804V60.0398H88.0104V59.0498H81.6504V60.0398H84.2804V68.1598Z" fill="#F19000"/>
<path d="M95.7305 59.0498H94.6105V65.2498C94.6105 66.5998 94.0106 67.3198 92.5206 67.3198C91.0306 67.3198 90.4305 66.5998 90.4305 65.2498V59.0498H89.3105V65.1398C89.3105 66.8598 90.0506 68.3098 92.5206 68.3098C94.9906 68.3098 95.7305 66.8598 95.7305 65.1398V59.0498Z" fill="#F19000"/>
<path d="M98.8895 59.0498H97.7695V68.1598H102.7V67.1698H98.8895V59.0498Z" fill="#F19000"/>
<path d="M108.68 64.7098H105.67L107.16 60.0998L108.68 64.7098ZM111.01 68.1598L107.85 59.0498H106.55L103.42 68.1598H104.55L105.37 65.6098H108.97L109.82 68.1598H111.01Z" fill="#F19000"/>
<path d="M115.55 59.8902C116.13 59.8902 117.05 60.0101 117.66 60.1801L117.73 59.1602C117.14 59.0202 116.26 58.9102 115.49 58.9102C112.59 58.9102 112.16 60.4601 112.16 63.2901V63.9301C112.16 66.6401 112.41 68.3102 115.58 68.3102C116.34 68.3102 117.23 68.2002 117.73 68.0602L117.66 67.0702C117.06 67.2302 116.18 67.3401 115.61 67.3401C113.46 67.3401 113.3 66.5502 113.3 63.8602V63.3701C113.3 60.7601 113.51 59.9001 115.55 59.9001" fill="#F19000"/>
<path d="M120.579 59.0498H119.449V68.1598H120.579V59.0498Z" fill="#F19000"/>
<path d="M125.08 58.4701L127.46 57.3901L127.41 56.3701L124.89 57.7001L125.08 58.4801V58.4701ZM129.26 63.2901C129.26 60.5701 128.8 58.9101 125.92 58.9101C123.04 58.9101 122.58 60.5701 122.58 63.2901V63.9301C122.58 66.6501 123.03 68.3101 125.92 68.3101C128.81 68.3101 129.26 66.6501 129.26 63.9301V63.2901ZM128.11 63.8901C128.11 66.1701 128.02 67.3301 125.92 67.3301C123.82 67.3301 123.72 66.1701 123.72 63.8901V63.3301C123.72 61.0501 123.82 59.8901 125.92 59.8901C128.02 59.8901 128.11 61.0501 128.11 63.3301V63.8901Z" fill="#F19000"/>
<path d="M136.379 68.1598H137.679V59.0498H136.579V66.4398L132.489 59.0498H131.199V68.1598H132.289V60.8498L136.379 68.1598Z" fill="#F19000"/>
<path d="M143.01 68.1598H148.22V67.1798H144.13V63.9798H147.77V62.9998H144.13V60.0398H148.2V59.0498H143.01V68.1598Z" fill="#F19000"/>
<path d="M154.409 59.0498H153.289V68.1598H154.409V59.0498Z" fill="#F19000"/>
<path d="M164.56 68.1598L164.2 59.0498H162.99L160.56 65.4098L158.14 59.0498H156.93L156.57 68.1598H157.67L157.92 61.1698L159.99 66.7398H161.12L163.19 61.1698L163.44 68.1598H164.56Z" fill="#F19000"/>
<path d="M171.3 61.9098C171.3 63.1998 171.18 63.8098 169.78 63.8098H167.78V60.0298H169.78C170.98 60.0298 171.3 60.3498 171.3 61.9098ZM166.66 68.1598H167.77V64.7998H169.94C172.05 64.7998 172.42 63.8298 172.42 61.8998C172.42 59.9698 172.09 59.0498 169.92 59.0498H166.66V68.1598Z" fill="#F19000"/>
<path d="M178.71 61.84C178.71 63.21 178.42 63.64 177.33 63.64H175.2V60.05H177.35C178.35 60.05 178.7 60.3101 178.7 61.8501M179.32 68.16H180.59L178.36 64.5201C179.53 64.2401 179.83 63.34 179.83 61.83C179.83 60.18 179.5 59.04 177.48 59.04H174.08V68.15H175.2V64.6001H177.16L179.33 68.15L179.32 68.16Z" fill="#F19000"/>
<path d="M182.039 68.1598H187.249V67.1798H183.159V63.9798H186.809V62.9998H183.159V60.0398H187.229V59.0498H182.039V68.1598Z" fill="#F19000"/>
<path d="M194.371 65.7099C194.371 64.0099 193.751 63.5899 192.011 63.1099C190.471 62.6899 189.931 62.5699 189.931 61.3399C189.931 60.3399 190.321 59.8799 191.761 59.8799C192.541 59.8799 193.381 60.0299 194.031 60.2199L194.121 59.1699C193.461 59.0199 192.541 58.8999 191.751 58.8999C189.371 58.8999 188.801 59.9599 188.801 61.5999C188.801 63.2399 189.611 63.5499 191.111 63.9299C192.681 64.3399 193.231 64.4899 193.231 65.8199C193.231 66.9099 192.691 67.3099 191.351 67.3099C190.541 67.3099 189.611 67.1399 188.921 66.8999L188.801 67.9499C189.531 68.1699 190.481 68.3199 191.341 68.3199C193.721 68.3199 194.381 67.3199 194.381 65.6999" fill="#F19000"/>
<path d="M197.351 59.0498H196.221V68.1598H197.351V59.0498Z" fill="#F19000"/>
<path d="M201.85 58.4701L204.23 57.3901L204.18 56.3701L201.66 57.7001L201.85 58.4801V58.4701ZM206.03 63.2901C206.03 60.5701 205.58 58.9101 202.69 58.9101C199.8 58.9101 199.35 60.5701 199.35 63.2901V63.9301C199.35 66.6501 199.8 68.3101 202.69 68.3101C205.58 68.3101 206.03 66.6501 206.03 63.9301V63.2901ZM204.88 63.8901C204.88 66.1701 204.79 67.3301 202.68 67.3301C200.57 67.3301 200.48 66.1701 200.48 63.8901V63.3301C200.48 61.0501 200.57 59.8901 202.68 59.8901C204.79 59.8901 204.88 61.0501 204.88 63.3301V63.8901Z" fill="#F19000"/>
<path d="M213.151 68.1598H214.441V59.0498H213.351V66.4398L209.261 59.0498H207.971V68.1598H209.061V60.8498L213.151 68.1598Z" fill="#F19000"/>
</svg>
