<svg width="248" height="80" viewBox="0 0 248 80" fill="none" xmlns="http://www.w3.org/2000/svg">
<path d="M52.7704 60.1299H92.6304V20.2699H52.7704V60.1299ZM93.7404 61.2399H51.6504V19.1499H93.7404V61.2399Z" fill="#F19000"/>
<path d="M75.9492 48.9402V31.4502V25.4502H69.4492V54.9402H75.9492V48.9402Z" fill="#F19000"/>
<path d="M104.04 60.1199H143.9V20.2599H104.04V60.1199ZM145.02 61.2399H102.93V19.1499H145.02V61.2399Z" fill="#F19000"/>
<path d="M116.869 48.9402V31.4502V25.4502H110.369V54.9402H116.869V48.9402Z" fill="#F19000"/>
<path d="M120.119 25.4502H119.199V31.4402H120.699C126.189 31.4402 130.819 34.1502 130.819 39.9402C130.819 46.6402 126.279 48.9402 120.239 48.9402H119.199V54.9402H120.989C129.779 54.9402 137.569 49.8202 137.569 40.2802C137.569 29.5002 129.619 25.4602 120.119 25.4602" fill="#F19000"/>
<path d="M171.88 42.3699L174.09 36.7199L171.67 28.4299L160.52 54.2299H167.34L169.67 48.2799H169.68L171.86 42.3699H171.88Z" fill="#F19000"/>
<path d="M177.759 26.1602H172.649L175.089 34.5002L178.469 43.0502H173.299L171.369 48.2802H180.569L182.989 54.2301H189.969L177.759 26.1602Z" fill="#F19000"/>
<path d="M155.309 60.1199H195.169V20.2599H155.309V60.1199ZM196.279 61.2399H154.199V19.1499H196.279V61.2399Z" fill="#F19000"/>
<path d="M220.311 39.3999C220.641 34.5799 223.961 31.16 228.401 31.16C230.701 31.16 232.481 31.99 233.711 33.46L238.471 29.58C236.091 26.53 232.131 25.46 229.001 25.46C220.501 25.46 214.261 30.88 213.891 39.41H220.311V39.3999Z" fill="#F19000"/>
<path d="M228.201 49.23C223.951 49.23 220.631 45.81 220.301 40.99H213.881C214.251 49.53 220.491 54.94 228.991 54.94C232.831 54.94 236.801 53.39 239.131 50.07L233.981 46.22C232.711 48.12 230.691 49.23 228.201 49.23Z" fill="#F19000"/>
<path d="M206.581 60.1299H246.441V20.2699H206.581V60.1299ZM247.561 61.2399H205.471V19.1499H247.561V61.2399Z" fill="#F19000"/>
<path d="M14.3301 48.9402V31.4502V25.4502H7.83008V54.9402H14.3301V48.9402Z" fill="#F19000"/>
<path d="M17.5802 25.4502H16.6602V31.4502H18.1602C23.6602 31.4502 28.2802 34.1502 28.2802 39.9502C28.2802 46.6602 23.7401 48.9502 17.7001 48.9502H16.6602V54.9402H18.4501C27.2401 54.9402 35.0302 49.8202 35.0302 40.2802C35.0302 29.4902 27.0802 25.4502 17.5802 25.4502Z" fill="#F19000"/>
<path d="M1.50086 60.1199H41.3609V20.2599H1.50086V60.1199ZM42.4709 61.2399H0.380859V19.1499H42.4709V61.2399Z" fill="#F19000"/>
</svg>
