<svg width="204" height="80" viewBox="0 0 204 80" fill="none" xmlns="http://www.w3.org/2000/svg">
<path fill-rule="evenodd" clip-rule="evenodd" d="M166.37 37.6498L161 22.0298H156.34V40.9898H158.89V24.0298L164.9 40.9898H167.4L173.64 23.9198V40.9898H176.22V22.0298H171.88L166.37 37.6498Z" fill="#F19000"/>
<path fill-rule="evenodd" clip-rule="evenodd" d="M193.89 31.78C192.82 31.07 192.34 30.97 187.95 29.85C185.71 29.31 184.64 28.75 184.64 27.13C184.64 25.3 186.17 24.16 188.72 24.16C190.53 24.16 192.47 24.67 192.59 26.95H195.24C195.19 26.2 195.14 24.95 194.12 23.83C192.64 22.22 190.17 22.02 188.95 22.02C185.49 22.02 181.94 23.65 181.94 27.39C181.94 28.61 182.35 29.98 183.85 30.99C184.79 31.63 186.04 31.93 188.84 32.62C191.41 33.25 193.07 33.66 193.07 35.72C193.07 36.64 192.59 39 188.76 39C184.53 39 184.38 36.64 184.33 35.37H181.68C181.68 36.26 181.71 37.73 182.75 39.08C184.2 40.93 187.06 41.16 188.46 41.16C193.18 41.16 195.72 38.69 195.72 35.44C195.72 34.68 195.59 32.9 193.88 31.78H193.89Z" fill="#F19000"/>
<path fill-rule="evenodd" clip-rule="evenodd" d="M23.8807 52.4402L13.7207 21.9702H8.2207L20.9507 57.6302H26.4007L39.5807 21.9702H34.5807L23.8807 52.4402Z" fill="#F19000"/>
<path d="M49.8305 22.0698H44.2305V27.1598H49.8305V22.0698Z" fill="#F19000"/>
<path d="M49.3807 32.8301H44.7207V57.6201H49.3807V32.8301Z" fill="#F19000"/>
<path fill-rule="evenodd" clip-rule="evenodd" d="M64.9706 42.37C63.6806 42.02 61.4506 41.48 61.4506 39.21C61.4506 35.66 65.8106 35.66 66.5006 35.66C68.1806 35.66 71.4506 35.95 71.3006 39.71H76.0606C76.0606 38.68 76.0606 37.49 75.4106 36.11C73.9206 33.15 69.5706 32.26 66.4406 32.26C60.7006 32.26 56.7306 35.22 56.7306 39.76C56.7306 44.94 61.0906 45.98 66.2906 47.17C70.0106 48.01 71.7406 48.45 71.7406 50.87C71.7406 51.71 71.4406 52.55 70.9506 53.19C69.9606 54.42 68.5206 54.77 66.5906 54.77C62.0806 54.77 61.0906 52.16 61.1406 50.28H56.2406C56.1906 56.25 60.9006 58.33 65.9506 58.33C68.5306 58.33 71.1506 57.98 73.3306 56.65C75.1606 55.52 76.7006 53.15 76.7006 50.38C76.7006 48.8 76.2006 47.07 74.8206 45.79C73.3306 44.41 71.8506 44.01 64.9606 42.39L64.9706 42.37Z" fill="#F19000"/>
<path fill-rule="evenodd" clip-rule="evenodd" d="M104.5 32.8301H99.6902V46.8601C99.6902 48.1001 99.6902 50.0201 98.6502 51.5001C97.3102 53.4801 95.1302 54.2701 92.8002 54.2701C88.0402 54.2701 87.5002 51.2101 87.5002 48.7901V32.8301H82.7402V49.4701C82.7402 54.3601 85.6102 57.8601 91.7602 57.8601C97.1102 57.8601 98.8002 55.1001 99.6902 53.3701L99.7902 57.6201H104.64C104.59 56.2301 104.49 53.4701 104.49 52.9801V32.8301H104.5Z" fill="#F19000"/>
<path fill-rule="evenodd" clip-rule="evenodd" d="M131.439 39.5501C131.439 38.4201 131.389 37.2301 130.599 35.7501C129.259 33.2301 125.399 32.0901 121.779 32.0901C119.159 32.0901 115.639 32.6801 113.759 34.7601C112.319 36.4401 112.169 38.1701 112.019 39.4501H116.679C116.729 38.4601 116.979 35.2501 121.689 35.2501C123.029 35.2501 125.059 35.6501 125.999 36.8801C126.889 37.9701 126.889 39.3001 126.889 42.3601C125.449 42.2601 124.709 42.2101 123.519 42.2101C121.539 42.2101 117.579 42.3601 114.899 43.8401C111.239 45.9701 110.539 49.1201 110.539 51.1001C110.539 55.2001 113.609 58.4101 119.309 58.4101C121.389 58.4101 124.759 58.0201 126.989 53.9201C126.989 55.2101 127.089 56.3901 127.429 57.6201H131.639C131.289 55.1001 131.239 51.7901 131.239 51.4001L131.439 39.5501ZM125.699 52.1001C124.559 53.8301 122.779 54.7701 120.399 54.7701C116.239 54.7701 115.249 52.0601 115.249 50.4701C115.249 45.4401 122.329 45.4401 124.219 45.4401C125.359 45.4401 126.049 45.4801 126.889 45.5901C126.789 49.0501 126.739 50.4301 125.699 52.1101V52.1001Z" fill="#F19000"/>
<path d="M143.33 22.0298H138.67V57.6298H143.33V22.0298Z" fill="#F19000"/>
</svg>
