<svg width="222" height="80" viewBox="0 0 222 80" fill="none" xmlns="http://www.w3.org/2000/svg">
<path d="M174.061 68.75H213.281V12.73H174.061V68.75ZM192.271 17.4H193.201V16.47H194.131V17.4H195.061V18.33H194.131V19.26H193.201V18.33H192.271V17.4ZM185.261 57.55H183.391V59.42H181.521V57.55H179.651V55.68H181.521V53.81H183.391V55.68H185.261V57.55ZM185.261 46.34H183.391V48.21H181.521V46.34H179.651V44.47H181.521V42.6H183.391V44.47H185.261V46.34ZM185.261 35.14H183.391V37.01H181.521V35.14H179.651V33.27H181.521V31.4H183.391V33.27H185.261V35.14ZM194.641 54.67C194.611 55 194.601 55.34 194.601 55.68C194.601 58.46 195.461 61.03 196.941 63.15H190.391C191.871 61.03 192.731 58.46 192.731 55.68C192.731 55.34 192.721 55.01 192.691 54.67C189.541 54.2 187.131 51.49 187.131 48.21H200.201C200.201 51.49 197.781 54.2 194.641 54.67ZM196.471 33.27V35.14H194.601V37.01H192.731V35.14H190.861V33.27H192.731V31.4H194.601V33.27H196.471ZM193.671 38.87C195.731 38.87 197.401 40.54 197.401 42.6C197.401 44.66 195.731 46.33 193.671 46.33C191.611 46.33 189.941 44.66 189.941 42.6C189.941 40.54 191.611 38.87 193.671 38.87ZM200.201 29.07H187.131V27.67H200.201V29.07ZM201.521 25.29L200.831 26.27H199.091L200.341 24.47C200.551 24.16 200.631 23.76 200.631 23.51C200.631 23.07 200.491 22.7 200.211 22.41C199.881 22.06 199.461 21.89 198.981 21.89C198.771 21.89 198.631 21.91 198.631 21.91C198.741 22.27 198.791 22.63 198.791 22.97C198.791 23.58 198.721 24.09 198.401 24.63L197.431 26.28H195.731L197.111 23.93C197.241 23.71 197.341 23.29 197.341 22.97C197.341 22.49 197.191 22.1 196.881 21.78C196.521 21.41 196.111 21.22 195.651 21.22C195.071 21.22 194.651 21.39 194.381 21.73V26.28H192.981V21.73C192.701 21.39 192.281 21.22 191.711 21.22C191.251 21.22 190.841 21.41 190.481 21.78C190.171 22.1 190.021 22.49 190.021 22.97C190.021 23.29 190.121 23.71 190.251 23.93L191.631 26.28H189.931L188.961 24.63C188.641 24.09 188.571 23.57 188.571 22.97C188.571 22.63 188.631 22.28 188.731 21.9C188.731 21.9 188.581 21.89 188.381 21.89C187.901 21.89 187.481 22.07 187.151 22.41C186.871 22.7 186.731 23.07 186.731 23.51C186.731 23.76 186.811 24.17 187.021 24.47L188.271 26.27H186.531L185.841 25.29C185.471 24.75 185.291 24.18 185.291 23.5C185.291 22.62 185.601 21.89 186.201 21.34C186.801 20.72 187.541 20.4 188.391 20.4C188.751 20.4 189.141 20.47 189.551 20.61C189.581 20.57 189.611 20.54 189.651 20.51C190.201 19.99 190.901 19.73 191.731 19.73C192.441 19.73 193.111 19.95 193.701 20.38C194.301 19.95 194.961 19.73 195.671 19.73C196.491 19.73 197.191 19.99 197.751 20.51C197.791 20.54 197.821 20.58 197.851 20.61C198.261 20.47 198.651 20.4 199.011 20.4C199.861 20.4 200.591 20.72 201.201 21.34C201.801 21.9 202.111 22.63 202.111 23.5C202.111 24.18 201.941 24.75 201.561 25.29M207.671 57.55H205.801V59.42H203.931V57.55H202.061V55.68H203.931V53.81H205.801V55.68H207.671V57.55ZM207.671 46.34H205.801V48.21H203.931V46.34H202.061V44.47H203.931V42.6H205.801V44.47H207.671V46.34ZM207.671 35.14H205.801V37.01H203.931V35.14H202.061V33.27H203.931V31.4H205.801V33.27H207.671V35.14Z" fill="#F19000"/>
<path d="M164.28 12.73H162.41V68.66H164.28V12.73Z" fill="#F19000"/>
<path d="M73.2192 17.5V19.28H68.5692V21.47H72.5992V23.09H68.5692V27.05H66.4492V17.5H73.2192Z" fill="#F19000"/>
<path d="M81.2899 26.31C80.5799 26.97 79.5399 27.25 78.2699 27.25C76.9999 27.25 75.9599 26.96 75.2299 26.31C74.5399 25.7 74.1699 24.76 74.1699 23.42V17.5H76.2899V23.42C76.2899 23.69 76.3099 23.95 76.3399 24.21C76.3999 24.45 76.4699 24.69 76.6299 24.88C76.7799 25.06 76.9699 25.21 77.2099 25.32C77.4699 25.45 77.8099 25.51 78.2499 25.51C78.9999 25.51 79.5199 25.33 79.8099 25.03C80.1199 24.69 80.2699 24.16 80.2699 23.42V17.5H82.3499V23.42C82.3499 24.75 81.9799 25.7 81.2699 26.31H81.2899Z" fill="#F19000"/>
<path d="M86.08 17.5L90.11 23.9H90.13V17.5H92.1V27.05H89.98L86 20.65V27.05H84V17.5H86.1H86.08Z" fill="#F19000"/>
<path d="M97.91 17.5C98.54 17.5 99.1 17.6 99.63 17.8C100.16 17.97 100.63 18.3 101 18.66C101.4 19.07 101.72 19.56 101.93 20.15C102.14 20.72 102.26 21.44 102.26 22.21C102.26 22.92 102.16 23.56 102 24.14C101.8 24.75 101.51 25.24 101.17 25.65C100.81 26.12 100.37 26.43 99.81 26.68C99.27 26.92 98.64 27.05 97.91 27.05H93.75V17.5H97.91ZM97.76 25.28C98.08 25.28 98.35 25.23 98.64 25.14C98.94 25.04 99.18 24.88 99.43 24.63C99.64 24.44 99.8 24.14 99.95 23.78C100.08 23.39 100.17 22.94 100.17 22.42C100.17 21.9 100.12 21.49 100.02 21.12C99.92 20.72 99.76 20.4 99.53 20.1C99.32 19.84 99.04 19.62 98.71 19.47C98.34 19.33 97.92 19.27 97.39 19.27H95.9V25.27H97.76V25.28Z" fill="#F19000"/>
<path d="M108.309 17.5L111.889 27.05H109.729L108.979 24.91H105.399L104.649 27.05H102.529L106.149 17.5H108.319H108.309ZM108.419 23.35L107.239 19.87H107.219L105.949 23.35H108.419Z" fill="#F19000"/>
<path d="M118.699 20.04C118.579 19.84 118.419 19.69 118.219 19.53C118.059 19.39 117.839 19.26 117.589 19.17C117.329 19.08 117.109 19.06 116.839 19.06C116.359 19.06 115.969 19.14 115.639 19.35C115.319 19.51 115.019 19.77 114.819 20.05C114.599 20.36 114.469 20.71 114.379 21.11C114.269 21.5 114.219 21.9 114.219 22.34C114.219 22.74 114.279 23.1 114.379 23.49C114.469 23.88 114.589 24.22 114.819 24.52C115.009 24.84 115.309 25.06 115.639 25.23C115.969 25.43 116.359 25.51 116.839 25.51C117.489 25.51 118.009 25.32 118.369 24.91C118.749 24.55 118.959 24.03 119.029 23.36H121.079C121.029 23.96 120.889 24.51 120.619 24.99C120.429 25.47 120.129 25.88 119.759 26.23C119.389 26.55 118.959 26.82 118.469 27C117.989 27.17 117.439 27.24 116.829 27.24C116.079 27.24 115.439 27.13 114.849 26.89C114.249 26.63 113.769 26.28 113.369 25.81C112.949 25.4 112.649 24.86 112.439 24.25C112.229 23.65 112.129 23 112.129 22.32C112.129 21.59 112.239 20.93 112.439 20.33C112.659 19.7 112.949 19.19 113.369 18.74C113.769 18.29 114.249 17.9 114.849 17.67C115.429 17.38 116.079 17.25 116.829 17.25C117.379 17.25 117.859 17.32 118.349 17.48C118.809 17.63 119.229 17.83 119.589 18.16C119.969 18.43 120.289 18.78 120.529 19.21C120.759 19.66 120.909 20.13 120.969 20.68H118.949C118.919 20.44 118.809 20.24 118.699 20.02V20.04Z" fill="#F19000"/>
<path d="M124.409 17.5V27.05H122.309V17.5H124.409Z" fill="#F19000"/>
<path d="M125.969 20.35C126.189 19.72 126.499 19.21 126.889 18.76C127.269 18.31 127.799 17.92 128.389 17.69C128.969 17.4 129.629 17.27 130.369 17.27C131.109 17.27 131.769 17.4 132.359 17.69C132.959 17.92 133.439 18.3 133.859 18.76C134.239 19.21 134.559 19.72 134.769 20.35C134.979 20.95 135.089 21.6 135.089 22.34C135.089 23.02 134.979 23.67 134.769 24.27C134.559 24.88 134.239 25.42 133.859 25.83C133.439 26.29 132.959 26.64 132.359 26.91C131.769 27.15 131.129 27.26 130.369 27.26C129.609 27.26 128.979 27.15 128.389 26.91C127.799 26.65 127.269 26.3 126.889 25.83C126.489 25.42 126.189 24.88 125.969 24.27C125.739 23.67 125.639 23.02 125.639 22.34C125.639 21.61 125.729 20.95 125.969 20.35ZM127.899 23.48C128.019 23.87 128.129 24.21 128.339 24.51C128.559 24.83 128.819 25.05 129.169 25.22C129.499 25.42 129.919 25.5 130.369 25.5C130.859 25.5 131.239 25.42 131.579 25.22C131.899 25.05 132.169 24.83 132.389 24.51C132.599 24.21 132.739 23.87 132.839 23.48C132.949 23.09 132.979 22.73 132.979 22.33C132.979 21.89 132.939 21.49 132.839 21.1C132.739 20.7 132.609 20.35 132.389 20.04C132.169 19.76 131.909 19.5 131.579 19.34C131.239 19.14 130.859 19.05 130.369 19.05C129.909 19.05 129.489 19.13 129.169 19.34C128.819 19.5 128.569 19.76 128.339 20.04C128.129 20.35 128.019 20.7 127.899 21.1C127.799 21.49 127.769 21.89 127.769 22.33C127.769 22.73 127.799 23.09 127.899 23.48ZM129.369 16.65L130.659 14.75H132.769L130.709 16.65H129.379H129.369Z" fill="#F19000"/>
<path d="M138.44 17.5L142.44 23.9H142.47V17.5H144.46V27.05H142.34L138.33 20.65H138.31V27.05H136.35V17.5H138.45H138.44Z" fill="#F19000"/>
<path d="M72.6093 33.4401C72.4793 33.2201 72.3393 33.0301 72.1493 32.8801C71.9693 32.7401 71.7393 32.6301 71.4993 32.5101C71.2593 32.4201 71.0293 32.4001 70.7493 32.4001C70.2993 32.4001 69.8593 32.5001 69.5593 32.6701C69.2393 32.8601 68.9593 33.1001 68.7393 33.4401C68.5293 33.7401 68.3593 34.0801 68.2893 34.4701C68.1893 34.8701 68.1493 35.2801 68.1493 35.6901C68.1493 36.1001 68.1893 36.4601 68.2893 36.8801C68.3693 37.2501 68.5293 37.6001 68.7393 37.8801C68.9493 38.1801 69.2293 38.4201 69.5593 38.6101C69.8593 38.8001 70.2993 38.8901 70.7493 38.8901C71.4193 38.8901 71.8993 38.6801 72.2793 38.2801C72.6393 37.9001 72.8693 37.3901 72.9493 36.7401H74.9993C74.9193 37.3601 74.8093 37.8801 74.5593 38.3701C74.3093 38.8401 74.0193 39.2401 73.6793 39.5901C73.2893 39.9301 72.8893 40.1901 72.3693 40.3801C71.8793 40.5301 71.3393 40.6201 70.7393 40.6201C70.0293 40.6201 69.3793 40.5001 68.7893 40.2501C68.1693 40.0001 67.6793 39.6401 67.2793 39.2101C66.8893 38.7401 66.5693 38.2301 66.3693 37.6101C66.1593 37.0201 66.0293 36.3801 66.0293 35.6901C66.0293 35.0001 66.1593 34.3201 66.3693 33.7001C66.5693 33.0901 66.8893 32.5601 67.2793 32.0901C67.6893 31.6701 68.1693 31.3101 68.7893 31.0401C69.3793 30.8001 70.0293 30.6401 70.7393 30.6401C71.2793 30.6401 71.7793 30.7301 72.2493 30.8901C72.7293 31.0401 73.1393 31.2301 73.5293 31.5301C73.8893 31.8401 74.1693 32.1901 74.4293 32.6201C74.6593 33.0201 74.8393 33.5301 74.8893 34.1001H72.8493C72.7993 33.8401 72.7193 33.6101 72.5893 33.4401H72.6093Z" fill="#F19000"/>
<path d="M78.3285 30.8901V40.4301H76.2285V30.8901H78.3285Z" fill="#F19000"/>
<path d="M84.1285 30.8901C84.7285 30.8901 85.3285 30.9601 85.8385 31.1801C86.3985 31.3701 86.8285 31.6901 87.2385 32.0701C87.6285 32.4101 87.9285 32.9401 88.1285 33.5301C88.3485 34.1101 88.4685 34.7901 88.4685 35.5901C88.4685 36.2801 88.3785 36.9201 88.1985 37.5201C88.0085 38.1101 87.7485 38.6201 87.4285 39.0501C87.0285 39.4801 86.5985 39.8001 86.0485 40.0801C85.4985 40.3201 84.8685 40.4401 84.1285 40.4401H79.9785V30.9001H84.1285V30.8901ZM83.9885 38.6501C84.2785 38.6501 84.5885 38.6101 84.8785 38.5201C85.1485 38.4001 85.4185 38.2501 85.6385 38.0401C85.8485 37.8001 86.0485 37.4901 86.1785 37.1101C86.3285 36.7901 86.3985 36.3301 86.3985 35.8001C86.3985 35.3201 86.3285 34.8901 86.2285 34.5101C86.1485 34.1101 85.9885 33.7801 85.7685 33.4901C85.5685 33.2201 85.2685 33.0101 84.9085 32.8601C84.5485 32.7201 84.1285 32.6401 83.6185 32.6401H82.1085V38.6501H83.9885Z" fill="#F19000"/>
<path d="M94.53 30.8901L98.1 40.4301H95.93L95.21 38.2901H91.61L90.86 40.4301H88.75L92.39 30.8901H94.53ZM94.66 36.7301L93.46 33.2201H93.44L92.19 36.7301H94.66Z" fill="#F19000"/>
<path d="M102.91 30.8901C103.52 30.8901 104.11 30.9601 104.63 31.1801C105.17 31.3701 105.62 31.6901 106.01 32.0701C106.43 32.4101 106.73 32.9401 106.92 33.5301C107.16 34.1101 107.27 34.7901 107.27 35.5901C107.27 36.2801 107.18 36.9201 107 37.5201C106.82 38.1101 106.55 38.6201 106.19 39.0501C105.83 39.4801 105.37 39.8001 104.8 40.0801C104.28 40.3201 103.64 40.4401 102.91 40.4401H98.7695V30.9001H102.91V30.8901ZM102.76 38.6501C103.08 38.6501 103.34 38.6101 103.64 38.5201C103.92 38.4001 104.19 38.2501 104.42 38.0401C104.64 37.8001 104.8 37.4901 104.95 37.1101C105.08 36.7901 105.13 36.3301 105.13 35.8001C105.13 35.3201 105.1 34.8901 105.03 34.5101C104.91 34.1101 104.74 33.7801 104.55 33.4901C104.34 33.2201 104.05 33.0101 103.67 32.8601C103.32 32.7201 102.91 32.6401 102.38 32.6401H100.89V38.6501H102.76Z" fill="#F19000"/>
<path d="M115.699 30.8901V32.6401H110.649V34.7001H115.299V36.3201H110.649V38.6501H115.799V40.4301H108.529V30.8901H115.699Z" fill="#F19000"/>
<path d="M70.5995 44.25C71.2095 44.25 71.8194 44.33 72.3394 44.54C72.8694 44.77 73.3395 45.03 73.7095 45.42C74.0995 45.81 74.3995 46.31 74.6095 46.92C74.8595 47.51 74.9595 48.19 74.9595 48.99C74.9595 49.66 74.8694 50.3 74.6694 50.91C74.5094 51.5 74.2094 51.99 73.8694 52.42C73.5194 52.84 73.0595 53.19 72.4995 53.43C71.9595 53.68 71.3494 53.81 70.5894 53.81H66.4395V44.26H70.5894L70.5995 44.25ZM70.4294 52.02C70.7194 52.02 71.0395 51.99 71.3495 51.88C71.6195 51.8 71.8795 51.62 72.0995 51.38C72.3395 51.18 72.4995 50.87 72.6395 50.52C72.7895 50.12 72.8394 49.69 72.8394 49.19C72.8394 48.69 72.7894 48.25 72.6994 47.86C72.6094 47.49 72.4395 47.14 72.2395 46.83C72.0295 46.58 71.7395 46.36 71.3895 46.23C71.0495 46.08 70.6094 46.01 70.0894 46.01H68.5695V52.01H70.4395L70.4294 52.02Z" fill="#F19000"/>
<path d="M80.9995 44.25L84.5795 53.8H82.4095L81.6794 51.69H78.0594L77.2995 53.8H75.1895L78.8394 44.25H80.9895H80.9995ZM81.1295 50.11L79.9095 46.61H79.8694L78.6494 50.11H81.1295Z" fill="#F19000"/>
<path d="M94.9391 46.7998C94.7991 46.5898 94.6491 46.4298 94.4391 46.2898C94.2691 46.1198 94.0792 46.0098 93.8192 45.9098C93.5692 45.8398 93.3592 45.8198 93.0692 45.8198C92.5892 45.8198 92.2092 45.8998 91.8792 46.0598C91.5292 46.2498 91.2692 46.4998 91.0692 46.8098C90.8792 47.1298 90.6891 47.4698 90.6091 47.8598C90.5191 48.2498 90.4892 48.6398 90.4892 49.0998C90.4892 49.4598 90.5191 49.8598 90.6091 50.2298C90.6891 50.6198 90.8692 50.9698 91.0692 51.2698C91.2692 51.5898 91.5292 51.8198 91.8792 51.9998C92.2092 52.1698 92.5992 52.2498 93.0692 52.2498C93.7292 52.2498 94.2192 52.0798 94.5992 51.6998C94.9592 51.2898 95.1891 50.7698 95.2491 50.1198H97.2891C97.2691 50.7298 97.0992 51.2698 96.8792 51.7698C96.6692 52.1998 96.3691 52.6598 96.0191 52.9798C95.6091 53.3298 95.1991 53.5898 94.6991 53.7598C94.2091 53.9298 93.6692 54.0098 93.0692 54.0098C92.3492 54.0098 91.6692 53.9198 91.0992 53.6198C90.4992 53.3798 89.9991 53.0498 89.5891 52.5898C89.2191 52.1398 88.8891 51.6198 88.6891 51.0398C88.4791 50.4298 88.3691 49.7698 88.3691 49.0998C88.3691 48.3798 88.4891 47.7198 88.6891 47.0998C88.8891 46.4798 89.2191 45.9398 89.5891 45.4998C89.9991 45.0398 90.5092 44.6698 91.0992 44.4398C91.6592 44.1898 92.3492 44.0498 93.0692 44.0498C93.6092 44.0498 94.1091 44.0998 94.5791 44.2798C95.0591 44.4498 95.4792 44.6598 95.8492 44.9498C96.2192 45.2398 96.5191 45.5998 96.7691 46.0398C96.9991 46.4498 97.1592 46.9498 97.2092 47.4998H95.1791C95.1391 47.2698 95.0491 47.0298 94.9391 46.8398V46.7998Z" fill="#F19000"/>
<path d="M105.609 53.05C104.869 53.69 103.849 53.99 102.579 53.99C101.309 53.99 100.269 53.7 99.5785 53.08C98.8585 52.43 98.4785 51.49 98.4785 50.18V44.25H100.599V50.18C100.599 50.46 100.629 50.7 100.679 50.95C100.739 51.21 100.809 51.44 100.949 51.6C101.099 51.8 101.279 51.97 101.539 52.07C101.799 52.19 102.139 52.24 102.569 52.24C103.319 52.24 103.839 52.12 104.129 51.79C104.429 51.44 104.569 50.91 104.569 50.19V44.26H106.659V50.19C106.659 51.5 106.299 52.45 105.599 53.06L105.609 53.05Z" fill="#F19000"/>
<path d="M110.439 44.25V52.02H115.089V53.8H108.279V44.25H110.439Z" fill="#F19000"/>
<path d="M114.059 46.02V44.25H121.939V46.02H119.059V53.8H116.949V46.02H114.059Z" fill="#F19000"/>
<path d="M129.92 53.05C129.2 53.69 128.19 53.99 126.9 53.99C125.61 53.99 124.61 53.7 123.88 53.08C123.18 52.43 122.83 51.49 122.83 50.18V44.25H124.9V50.18C124.9 50.46 124.94 50.7 125 50.95C125.04 51.21 125.13 51.44 125.29 51.6C125.43 51.8 125.63 51.97 125.89 52.07C126.13 52.19 126.48 52.24 126.91 52.24C127.65 52.24 128.2 52.12 128.47 51.79C128.75 51.44 128.91 50.91 128.91 50.19V44.26H131.03V50.19C131.03 51.5 130.65 52.45 129.94 53.06L129.92 53.05Z" fill="#F19000"/>
<path d="M137.799 44.2502C138.219 44.2502 138.629 44.3102 138.969 44.4602C139.299 44.5802 139.589 44.8002 139.839 45.0202C140.089 45.2502 140.269 45.5302 140.389 45.8802C140.539 46.1802 140.599 46.5102 140.599 46.8602C140.599 47.4302 140.489 47.9202 140.249 48.3602C140.009 48.7402 139.629 49.0802 139.089 49.2602V49.2902C139.339 49.3702 139.569 49.4602 139.719 49.6302C139.899 49.7602 140.029 49.9502 140.139 50.1502C140.249 50.3402 140.339 50.5802 140.369 50.8102C140.439 51.0502 140.479 51.2702 140.479 51.5402C140.479 51.6802 140.489 51.8702 140.489 52.0602C140.509 52.2702 140.529 52.4702 140.539 52.7002C140.569 52.9202 140.599 53.1402 140.659 53.3102C140.699 53.4802 140.799 53.6702 140.889 53.7902H138.739C138.649 53.4802 138.569 53.1402 138.549 52.7002C138.539 52.2802 138.469 51.9002 138.449 51.4902C138.349 51.0102 138.169 50.6302 137.969 50.4002C137.739 50.1702 137.359 50.0302 136.819 50.0302H134.719V53.7902H132.609V44.2402H137.789L137.799 44.2502ZM137.049 48.5702C137.539 48.5702 137.879 48.4502 138.129 48.2502C138.379 48.0302 138.489 47.7002 138.489 47.1902C138.489 46.7402 138.379 46.3902 138.129 46.1802C137.879 45.9902 137.539 45.8702 137.049 45.8702H134.729V48.5602H137.049V48.5702Z" fill="#F19000"/>
<path d="M146.889 44.25L150.489 53.8H148.299L147.579 51.69H143.959L143.239 53.8H141.109L144.759 44.25H146.889ZM147.029 50.11L145.809 46.61H145.789L144.519 50.11H147.029Z" fill="#F19000"/>
<path d="M69.8601 57.5999C71.3501 57.5999 72.4801 57.9999 73.2901 58.7399C74.0901 59.4699 74.4701 60.6198 74.4701 62.1698C74.4701 62.9598 74.4001 63.6598 74.2201 64.2898C74.0201 64.9198 73.7501 65.4299 73.3801 65.8499C73.0001 66.2899 72.5001 66.5998 71.9301 66.8398C71.3501 67.0398 70.6601 67.1698 69.8601 67.1698H66.5801V57.5898H69.8601V57.5999ZM69.9801 66.0898C70.1201 66.0898 70.3001 66.0799 70.5201 66.0499C70.7301 66.0499 70.9801 65.9799 71.2101 65.8799C71.4701 65.7999 71.6701 65.6798 71.9301 65.5398C72.1601 65.3698 72.3801 65.1498 72.5501 64.8998C72.7401 64.6198 72.8901 64.2798 73.0201 63.8398C73.1601 63.4298 73.2301 62.9499 73.2301 62.3499C73.2301 61.7499 73.1701 61.2499 73.0401 60.8199C72.9401 60.3599 72.7501 59.9898 72.4901 59.6698C72.2201 59.3498 71.9001 59.1098 71.5101 58.9498C71.0901 58.7698 70.6101 58.6898 70.0001 58.6898H67.8701V66.0999H69.9901L69.9801 66.0898Z" fill="#F19000"/>
<path d="M82.4594 57.5999V58.6798H77.1294V61.7099H82.1094V62.7999H77.1294V66.0898H82.5094V67.1698H75.8594V57.5898H82.4694L82.4594 57.5999Z" fill="#F19000"/>
<path d="M93.1799 67.0499C92.6199 67.2699 92.0599 67.3899 91.5099 67.3899C90.7699 67.3899 90.1299 67.2699 89.5599 66.9999C89.0299 66.7199 88.5399 66.3799 88.1399 65.9199C87.7599 65.4799 87.4799 64.9599 87.2499 64.3899C87.0399 63.7999 86.9199 63.2099 86.9199 62.5899C86.9199 61.8899 87.0399 61.2299 87.2099 60.5899C87.4399 59.9899 87.6999 59.4099 88.0799 58.9499C88.4799 58.4699 88.9399 58.0999 89.5299 57.8199C90.0799 57.5399 90.7399 57.3799 91.5199 57.3799C92.0499 57.3799 92.5399 57.4599 92.9899 57.5799C93.4499 57.6999 93.8599 57.8799 94.2099 58.1399C94.5899 58.4099 94.8799 58.7099 95.1499 59.1199C95.3599 59.5199 95.5399 59.9999 95.6099 60.5699H94.3599C94.2799 60.1999 94.1599 59.8899 94.0299 59.6199C93.8599 59.3399 93.6099 59.1299 93.3999 58.9699C93.1499 58.7899 92.8499 58.6599 92.5399 58.5799C92.2399 58.5099 91.8699 58.4599 91.5199 58.4599C90.9399 58.4599 90.4299 58.5799 90.0099 58.8099C89.5699 59.0499 89.2399 59.3399 89.0099 59.7199C88.7399 60.1199 88.5299 60.5399 88.3999 61.0299C88.2799 61.5199 88.2199 61.9899 88.2199 62.4999C88.2199 63.0099 88.2799 63.4999 88.4299 63.9499C88.5799 64.3899 88.7699 64.8099 89.0599 65.1799C89.3299 65.5199 89.6799 65.7999 90.1099 65.9799C90.4899 66.2199 90.9899 66.3499 91.5199 66.3499C92.0199 66.3499 92.4399 66.2599 92.8399 66.0599C93.2299 65.9199 93.5599 65.6799 93.7999 65.4399C94.0899 65.1599 94.2699 64.8199 94.4099 64.4499C94.5399 64.0599 94.5999 63.6699 94.5799 63.2199H91.5099V62.1199H95.7099V67.1799H94.9299L94.5699 65.9799C94.1899 66.4799 93.7199 66.8499 93.1699 67.0499H93.1799Z" fill="#F19000"/>
<path d="M101.42 57.6001L105.17 67.1801H103.75L102.71 64.3001H98.6298L97.5698 67.1801H96.2598L100.01 57.6001H101.41H101.42ZM102.31 63.2101L100.72 58.7701H100.68L99.0698 63.2101H102.31Z" fill="#F19000"/>
<path d="M107.22 57.6001V66.1001H112.28V67.1801H105.91V57.6001H107.22Z" fill="#F19000"/>
<path d="M114.55 57.6001V67.1801H113.25V57.6001H114.55Z" fill="#F19000"/>
<path d="M122.31 58.9699C121.81 58.6199 121.23 58.4699 120.54 58.4699C119.98 58.4699 119.49 58.5899 119.07 58.7799C118.67 58.9999 118.35 59.2999 118.06 59.6699C117.81 60.0099 117.59 60.4299 117.49 60.8799C117.34 61.3399 117.29 61.8299 117.29 62.3199C117.29 62.8799 117.33 63.3799 117.49 63.8699C117.59 64.3699 117.81 64.7699 118.06 65.1499C118.36 65.4899 118.67 65.7899 119.07 65.9799C119.48 66.2199 119.98 66.3499 120.55 66.3499C120.97 66.3499 121.35 66.2599 121.7 66.1399C122 65.9799 122.31 65.7799 122.54 65.5399C122.76 65.3099 122.96 65.0099 123.09 64.6499C123.22 64.3299 123.29 63.9699 123.32 63.5699H124.6C124.45 64.7599 124.06 65.6799 123.32 66.3799C122.63 67.0499 121.7 67.3899 120.43 67.3899C119.72 67.3899 119.04 67.2699 118.49 67.0199C117.93 66.7399 117.48 66.3999 117.11 65.9499C116.72 65.4899 116.48 64.9899 116.25 64.3699C116.08 63.7499 116 63.1199 116 62.4199C116 61.7199 116.08 61.0799 116.27 60.4599C116.5 59.8699 116.76 59.3299 117.16 58.8899C117.55 58.4199 118.01 58.0499 118.58 57.8099C119.15 57.4999 119.81 57.3799 120.54 57.3799C121.04 57.3799 121.51 57.4699 121.96 57.5899C122.41 57.7399 122.82 57.9299 123.16 58.1799C123.49 58.4399 123.78 58.7699 124.04 59.1799C124.29 59.5499 124.43 60.0099 124.49 60.5199H123.22C123.09 59.8099 122.76 59.3399 122.3 58.9799L122.31 58.9699Z" fill="#F19000"/>
<path d="M127.319 57.6001V67.1801H126.029V57.6001H127.319Z" fill="#F19000"/>
<path d="M133.289 57.6001L137.049 67.1801H135.629L134.579 64.3001H130.509L129.429 67.1801H128.119L131.869 57.6001H133.279H133.289ZM134.189 63.2101L132.599 58.7701H132.559L130.919 63.2101H134.189Z" fill="#F19000"/>
<path d="M34.2497 44.5599C35.1097 44.5599 35.8297 43.8699 35.8297 43.0099C35.8297 42.1499 35.1097 41.4399 34.2497 41.4399C33.3897 41.4399 32.6797 42.1299 32.6797 43.0099C32.6797 43.8899 33.3597 44.5599 34.2497 44.5599Z" fill="#F19000"/>
<path d="M28.2302 24.4599C27.7702 24.6199 27.3002 24.8099 26.8302 24.9999C19.7202 27.8699 14.6602 34.8399 14.6602 43.0099C14.6602 53.7599 23.4202 62.4899 34.2502 62.4899C45.0802 62.4899 53.8202 53.7599 53.8202 43.0099C53.8202 36.9999 51.0702 31.6699 46.8102 28.0599L45.8701 29.2299C49.8401 32.5199 52.3602 37.4899 52.3602 43.0099C52.3602 52.9299 44.2302 61.0299 34.2502 61.0299C24.2702 61.0299 16.1301 52.9399 16.1301 43.0099C16.1301 35.4899 20.7701 29.0399 27.3401 26.3299L28.8902 30.6099C24.0802 32.6499 20.6702 37.4199 20.6702 43.0099C20.6702 50.4699 26.7602 56.4899 34.2402 56.4899C41.7202 56.4899 47.8002 50.4699 47.8002 43.0099C47.8002 35.5499 42.1202 29.9199 34.9602 29.5599V28.0099C34.4402 27.8999 33.9802 27.7899 33.4602 27.5799V32.5199C27.9902 32.9399 23.6802 37.4499 23.6802 43.0099C23.6802 48.5699 28.4002 53.4899 34.2502 53.4899C40.1002 53.4899 44.8002 48.7699 44.8002 43.0099C44.8002 39.3799 42.9802 36.2199 40.1302 34.3099C39.7202 34.0299 39.3001 33.7999 38.8401 33.5599L38.1102 34.8399L35.8302 38.7599L35.0602 40.1299C35.5602 40.2699 36.0001 40.5399 36.3401 40.8699C36.9201 41.4099 37.2302 42.1699 37.2302 43.0099C37.2302 44.6299 35.9202 45.9799 34.2602 45.9799C32.6002 45.9799 31.2402 44.6299 31.2402 43.0099C31.2402 42.4299 31.4101 41.8799 31.7001 41.4399L30.3602 40.6999C29.9602 41.3599 29.6802 42.1299 29.6802 43.0099C29.6802 45.4799 31.7302 47.4999 34.2502 47.4999C36.7702 47.4999 38.7502 45.4799 38.7502 43.0099C38.7502 41.5999 38.1302 40.3499 37.1102 39.5199L39.3902 35.5699C41.7702 37.1999 43.3102 39.8899 43.3102 42.9999C43.3102 47.9699 39.2502 52.0099 34.2502 52.0099C29.2502 52.0099 25.1402 47.9699 25.1402 42.9999C25.1402 38.0299 28.8002 34.3999 33.4602 33.9999C33.7202 33.9899 33.9802 33.9399 34.2402 33.9399C34.4802 33.9399 34.7602 33.9899 34.9602 33.9999V31.0499C41.2502 31.4499 46.2402 36.6499 46.2402 42.9999C46.2402 49.3499 40.8702 54.9499 34.2402 54.9499C27.6102 54.9499 22.2302 49.5899 22.2302 42.9999C22.2302 38.0799 25.1602 33.8599 29.4402 32.0299C29.8602 31.8299 30.3502 31.6699 30.8302 31.4999L30.3102 30.0799L28.7602 25.8299L28.2202 24.4399L28.2302 24.4599Z" fill="#F19000"/>
<path d="M34.249 48.99C30.929 48.99 28.209 46.3 28.209 43C28.209 40.69 29.549 38.64 31.489 37.68L32.559 40.56L33.979 40.07L32.909 37.16L32.379 35.73C31.869 35.87 31.399 36.01 30.959 36.24C28.439 37.45 26.709 40.03 26.709 43.01C26.709 47.13 30.089 50.51 34.249 50.51C38.409 50.51 41.769 47.13 41.769 43.01C41.769 41.39 41.259 39.9 40.419 38.65L39.169 39.55C39.849 40.53 40.249 41.72 40.249 43.01C40.249 46.31 37.559 49 34.249 49" fill="#F19000"/>
<path d="M46.1292 24.0004C45.7292 23.7004 45.2992 23.4504 44.8392 23.2504L44.0792 24.5103L41.8792 28.3703L41.0892 29.7003C41.5292 29.9103 41.9692 30.1504 42.3692 30.4604C46.5492 33.1004 49.2792 37.7104 49.2792 43.0004C49.2792 51.2204 42.5092 57.9303 34.2392 57.9303C25.9692 57.9303 19.1592 51.2204 19.1592 43.0004C19.1592 37.7104 21.9092 33.1004 26.0492 30.4604L25.2192 29.1803C20.6692 32.0803 17.6692 37.2004 17.6692 43.0004C17.6692 52.1104 25.0792 59.4604 34.2492 59.4604C43.4192 59.4604 50.8092 52.1104 50.8092 43.0004C50.8092 37.1504 47.7792 32.0303 43.1892 29.1203L45.4192 25.2704C51.3592 28.9504 55.2692 35.5004 55.2692 43.0004C55.2692 54.5404 45.8492 63.9303 34.2592 63.9303C22.6692 63.9303 13.2092 54.5504 13.2092 43.0004C13.2092 33.0004 20.1892 24.7204 29.5692 22.5804C29.5392 22.2604 29.4792 21.9104 29.4792 21.5504C29.4792 21.3804 29.5092 21.2504 29.5492 21.1104C26.4892 21.7504 23.6792 22.9803 21.2292 24.7303C21.0592 24.2603 20.7592 23.8204 20.3792 23.4404C19.5992 22.7004 18.5792 22.2704 17.4692 22.2704C15.1792 22.2704 13.3392 24.1104 13.3392 26.3304C13.3392 27.1504 13.6092 27.9404 14.0392 28.5804L15.3292 27.8103C15.0492 27.3903 14.8392 26.8704 14.8392 26.3204C14.8392 25.6404 15.1292 25.0003 15.6292 24.4803C16.1192 24.0303 16.7392 23.7303 17.4692 23.7303C18.1492 23.7303 18.8192 24.0203 19.3192 24.4803C19.6592 24.8603 19.8592 25.2103 19.9792 25.6503C19.5992 26.0003 19.2192 26.3004 18.8492 26.6404L17.3692 25.1604L16.3192 26.2204L17.8092 27.6904C14.6792 31.0404 12.5592 35.3104 11.9292 40.0704C11.8692 40.0304 11.7792 40.0303 11.7192 40.0303C10.0592 40.0303 8.69922 41.3603 8.69922 43.0103C8.69922 43.8203 9.04922 44.5603 9.59922 45.1203C10.1492 45.6903 10.8992 46.0204 11.7192 46.0204C11.7692 46.0204 11.8792 46.0204 11.9292 46.0004C13.3892 56.9404 22.8592 65.3904 34.2792 65.3904C46.7092 65.3904 56.8092 55.3504 56.8092 43.0004C56.8092 34.9704 52.5492 27.9204 46.1592 23.9904M11.6892 44.5103C11.2692 44.5103 10.9092 44.3304 10.5992 44.0704C10.3092 43.7804 10.2192 43.4003 10.2192 43.0103C10.2192 42.6203 10.3092 42.2403 10.5992 41.9803C10.9092 41.6803 11.2692 41.5504 11.6892 41.5504H11.7392C11.7192 42.0104 11.7092 42.5104 11.7092 43.0204C11.7092 43.5304 11.7392 44.0103 11.7392 44.5103C11.7392 44.5203 11.7092 44.5204 11.7092 44.5204" fill="#F19000"/>
<path d="M32.4487 25.1303C31.6887 24.3403 31.2287 23.3703 31.0187 22.3403C30.9887 22.0703 30.9688 21.8303 30.9688 21.5603C30.9688 21.3203 30.9887 21.0503 31.0187 20.8203C31.1887 19.7603 31.6887 18.7903 32.4487 18.0203C33.4087 17.0603 34.6687 16.5203 36.0387 16.5203C36.2787 16.5203 36.5187 16.5503 36.7687 16.6303L36.9887 15.1403C36.6787 15.0903 36.3487 15.0503 36.0387 15.0503C32.5787 15.0503 29.7487 17.7203 29.5387 21.1203C29.5087 21.2703 29.4688 21.3903 29.4688 21.5603C29.4688 21.9203 29.5387 22.2703 29.5587 22.5903C29.7987 23.9503 30.3788 25.2103 31.3988 26.1903C32.0088 26.7903 32.7087 27.2503 33.4587 27.5603C33.9787 27.7803 34.4387 27.8903 34.9887 28.0003V26.4703C34.4387 26.3603 33.9487 26.1903 33.4587 25.8803C33.1087 25.6803 32.7687 25.4303 32.4487 25.1203" fill="#F19000"/>
<path d="M46.7298 12.5401L45.4798 11.6401L44.4498 13.0601C44.0998 12.9101 43.7098 12.8001 43.3298 12.7901C42.3598 12.6801 41.4198 13.0001 40.6698 13.6401C39.9298 14.2301 39.4898 15.0501 39.3698 15.9701V16.0701C39.2998 17.0301 39.5798 17.9201 40.1598 18.6501C40.1998 18.7101 40.1498 18.6701 40.1998 18.7601C40.7698 19.5701 41.0698 20.5501 41.0698 21.5601V21.6701C39.9898 21.3301 38.8998 21.0601 37.7898 20.8901L37.6098 22.3401C38.6898 22.5301 39.7998 22.8001 40.8198 23.1301C40.3098 24.6601 39.0798 25.8901 37.5098 26.3701L37.9498 27.7901C38.9598 27.5001 39.9098 26.9301 40.6498 26.2001C41.3698 25.4401 41.8998 24.6001 42.2298 23.6601C42.8598 23.9101 43.4798 24.2201 44.0698 24.5201L44.8298 23.2401C44.0998 22.8501 43.3298 22.5201 42.5098 22.2001C42.5498 22.0101 42.5698 21.8001 42.5698 21.5701C42.5698 20.1901 42.1198 18.8701 41.2798 17.7701C40.9598 17.3301 40.8098 16.7601 40.8498 16.2201C40.9198 15.6301 41.1598 15.1501 41.6198 14.7801C42.0798 14.4201 42.6098 14.2401 43.1998 14.2801C44.3798 14.4001 45.2598 15.4401 45.1398 16.5901C45.0898 17.4001 44.5898 18.0501 43.8498 18.3901L44.4398 19.7901C45.6698 19.2401 46.5298 18.0501 46.6598 16.7501C46.7198 15.6601 46.3498 14.6701 45.6398 13.9201L46.7198 12.5601L46.7298 12.5401Z" fill="#F19000"/>
<path d="M37.3892 23.12C37.0292 23.42 36.5192 23.61 36.0392 23.61C35.4592 23.61 34.9592 23.42 34.5792 23.02C34.1792 22.63 33.9792 22.11 33.9792 21.56C33.9792 21.01 34.1792 20.49 34.5792 20.11C34.9592 19.72 35.4592 19.52 36.0392 19.52C36.5892 19.52 37.1092 19.72 37.5092 20.11L38.5492 19.06C37.8992 18.38 36.9892 18.02 36.0392 18.02C34.0492 18.02 32.4492 19.61 32.4492 21.56C32.4492 22.52 32.8192 23.42 33.4792 24.05C34.1792 24.77 35.0692 25.13 36.0392 25.13C36.8892 25.13 37.6892 24.81 38.3492 24.25L37.3892 23.13V23.12Z" fill="#F19000"/>
</svg>
