<svg width="246" height="66" viewBox="0 0 246 66" fill="none" xmlns="http://www.w3.org/2000/svg">
<path d="M9.7207 65.5501H55.0207V0.840088H9.7207V65.5501ZM30.7507 6.23009H31.8307V5.15009H32.9107V6.23009H33.9907V7.31009H32.9107V8.39009H31.8307V7.31009H30.7507V6.23009ZM22.6707 52.6101H20.5107V54.7701H18.3507V52.6101H16.1907V50.4501H18.3507V48.2901H20.5107V50.4501H22.6707V52.6101ZM22.6707 39.6601H20.5107V41.8201H18.3507V39.6601H16.1907V37.5001H18.3507V35.3401H20.5107V37.5001H22.6707V39.6601ZM22.6707 26.7201H20.5107V28.8801H18.3507V26.7201H16.1907V24.5601H18.3507V22.4001H20.5107V24.5601H22.6707V26.7201ZM33.5007 49.2901C33.4707 49.6701 33.4607 50.0601 33.4607 50.4501C33.4607 53.6601 34.4607 56.6301 36.1707 59.0801H28.6007C30.3107 56.6301 31.3107 53.6601 31.3107 50.4501C31.3107 50.0601 31.2907 49.6701 31.2707 49.2901C27.6307 48.7501 24.8407 45.6101 24.8407 41.8201H39.9407C39.9407 45.6101 37.1507 48.7401 33.5107 49.2901M35.6107 24.5701V26.7301H33.4507V28.8901H31.2907V26.7301H29.1307V24.5701H31.2907V22.4101H33.4507V24.5701H35.6107ZM32.3707 31.0401C34.7507 31.0401 36.6907 32.9701 36.6907 35.3601C36.6907 37.7501 34.7607 39.6701 32.3707 39.6701C29.9807 39.6701 28.0507 37.7401 28.0507 35.3601C28.0507 32.9801 29.9807 31.0401 32.3707 31.0401ZM39.9207 19.7101H24.8207V18.0901H39.9207V19.7101ZM41.4507 15.3501L40.6607 16.4801H38.6407L40.0807 14.4001C40.3207 14.0401 40.4107 13.5801 40.4107 13.2901C40.4107 12.7801 40.2507 12.3501 39.9207 12.0201C39.5307 11.6201 39.0607 11.4101 38.5007 11.4101C38.2607 11.4101 38.0907 11.4301 38.0907 11.4301C38.2107 11.8501 38.2807 12.2701 38.2807 12.6501C38.2807 13.3501 38.2007 13.9401 37.8307 14.5701L36.7107 16.4701H34.7507L36.3507 13.7601C36.5007 13.5101 36.6207 13.0201 36.6207 12.6501C36.6207 12.0901 36.4507 11.6501 36.0907 11.2801C35.6707 10.8501 35.2007 10.6301 34.6707 10.6301C34.0007 10.6301 33.5207 10.8201 33.2007 11.2201V16.4701H31.5807V11.2201C31.2607 10.8301 30.7807 10.6301 30.1107 10.6301C29.5807 10.6301 29.1007 10.8501 28.6907 11.2801C28.3307 11.6501 28.1607 12.0901 28.1607 12.6501C28.1607 13.0201 28.2807 13.5101 28.4207 13.7601L30.0207 16.4701H28.0607L26.9407 14.5701C26.5707 13.9401 26.4907 13.3501 26.4907 12.6501C26.4907 12.2601 26.5507 11.8501 26.6807 11.4201C26.6807 11.4201 26.5107 11.4101 26.2707 11.4101C25.7107 11.4101 25.2407 11.6101 24.8507 12.0201C24.5207 12.3501 24.3607 12.7801 24.3607 13.2901C24.3607 13.5801 24.4507 14.0501 24.6907 14.4001L26.1307 16.4801H24.1107L23.3207 15.3501C22.8907 14.7301 22.6907 14.0701 22.6907 13.2901C22.6907 12.2801 23.0407 11.4401 23.7407 10.7901C24.4407 10.0701 25.2907 9.70009 26.2607 9.70009C26.6807 9.70009 27.1307 9.79009 27.6007 9.95009C27.6407 9.91009 27.6707 9.87009 27.7107 9.83009C28.3507 9.24009 29.1607 8.93009 30.1107 8.93009C30.9407 8.93009 31.7007 9.18009 32.3907 9.68009C33.0807 9.18009 33.8507 8.93009 34.6707 8.93009C35.6207 8.93009 36.4307 9.23009 37.0707 9.83009C37.1107 9.87009 37.1507 9.91009 37.1807 9.95009C37.6507 9.79009 38.1007 9.70009 38.5207 9.70009C39.5007 9.70009 40.3507 10.0701 41.0407 10.7901C41.7407 11.4301 42.0907 12.2801 42.0907 13.2901C42.0907 14.0701 41.8907 14.7301 41.4607 15.3501M48.5507 52.6101H46.3907V54.7701H44.2307V52.6101H42.0707V50.4501H44.2307V48.2901H46.3907V50.4501H48.5507V52.6101ZM48.5507 39.6601H46.3907V41.8201H44.2307V39.6601H42.0707V37.5001H44.2307V35.3401H46.3907V37.5001H48.5507V39.6601ZM48.5507 26.7201H46.3907V28.8801H44.2307V26.7201H42.0707V24.5601H44.2307V22.4001H46.3907V24.5601H48.5507V26.7201ZM85.0707 48.1301C85.0707 55.1301 81.0407 59.0801 75.0907 59.0801H67.9607V37.5001H74.7807C80.9707 37.5001 85.0707 41.3501 85.0707 48.1301ZM82.0707 48.1301C82.0707 42.7801 78.9707 40.1201 74.7207 40.1201H70.7807V56.4501H74.9107C79.1007 56.4501 82.0707 53.7001 82.0707 48.1301ZM90.1707 37.4901H103.431L102.551 40.1201H92.9807V46.5001H101.551V49.1301H92.9807V56.4501H102.681L103.561 59.0801H90.1707V37.5001V37.4901ZM116.151 48.1901C116.151 41.4701 120.341 36.9901 126.751 36.9901C129.161 36.9901 132.041 37.9301 134.161 39.1801V42.4301C131.501 40.7701 128.621 39.6801 126.751 39.6801C122.281 39.6801 119.151 43.0901 119.151 48.1901C119.151 53.6001 121.871 56.9501 125.911 56.9501C129.661 56.9501 132.381 54.5701 132.731 50.5401H126.691L125.851 47.9101H135.511C135.641 48.5001 135.701 49.1601 135.701 49.8801C135.701 55.6001 131.911 59.6401 125.911 59.6401C119.911 59.6401 116.151 55.2301 116.151 48.1901ZM147.371 37.4901H149.181L158.251 59.0701H155.151L153.061 53.7801H143.401L141.271 59.0701H138.301L147.371 37.4901ZM152.031 51.2201L148.251 41.7401L144.431 51.2201H152.031ZM162.161 37.4901H164.971V56.4401H174.981L175.861 59.0701H162.161V37.4901ZM179.891 37.4901H182.701V59.0701H179.891V37.4901ZM187.811 48.1301C187.811 41.4401 191.471 37.0001 197.321 37.0001C199.851 37.0001 202.541 37.9401 204.511 39.4101V42.6901C202.131 40.9101 199.511 39.6901 197.321 39.6901C193.571 39.6901 190.821 42.8801 190.821 48.1401C190.821 53.4001 193.451 56.9001 197.321 56.9001C199.511 56.9001 202.141 55.6801 204.511 53.9001V57.1901C202.541 58.6601 199.851 59.6001 197.321 59.6001C191.351 59.6001 187.811 55.0301 187.811 48.1501M209.541 37.4901H212.351V59.0701H209.541V37.4901ZM225.341 37.4901H227.151L236.221 59.0701H233.121L231.021 53.7801H221.361L219.231 59.0701H216.261L225.331 37.4901H225.341ZM230.001 51.2201L226.211 41.7401L222.391 51.2201H229.991H230.001ZM75.2607 17.7801L68.3507 7.30009H71.6607L77.0407 15.4601L82.3607 7.30009H85.5507L78.6407 17.8401L85.9307 28.8801H82.6107L76.8607 20.1601L71.1707 28.8801H67.9807L75.2707 17.7801H75.2607ZM89.3307 21.6501V7.30009H92.1407V21.5301C92.1407 24.8801 94.1707 26.7501 97.3007 26.7501C100.431 26.7501 102.461 24.8701 102.461 21.5301V7.30009H105.271V21.6501C105.271 26.5001 102.171 29.4401 97.3007 29.4401C92.4307 29.4401 89.3307 26.5001 89.3307 21.6501ZM111.441 7.30009H113.821L124.861 22.6901V7.30009H127.671V28.8801H126.071L114.251 12.4001V28.8801H111.441V7.30009ZM140.221 9.93009H132.401L131.521 7.30009H151.721L150.841 9.93009H143.021V28.8801H140.211V9.93009H140.221ZM159.761 7.30009H161.581L170.651 28.8801H167.551L165.461 23.5901H155.801L153.671 28.8801H150.701L159.771 7.30009H159.761ZM164.421 21.0301L160.631 11.5501L156.811 21.0301H164.411H164.421Z" fill="#F29100"/>
</svg>
