<svg width="144" height="80" viewBox="0 0 144 80" fill="none" xmlns="http://www.w3.org/2000/svg">
<path d="M57.8509 29.6702C58.3509 30.5302 58.9909 31.2402 59.7709 31.7902C60.5609 32.3402 61.4609 32.7402 62.4809 33.0102C63.5009 33.2702 64.5609 33.4002 65.6609 33.4002C66.4509 33.4002 67.2709 33.3102 68.1309 33.1302C68.9909 32.9402 69.7809 32.6502 70.4909 32.2602C71.1909 31.8702 71.7809 31.3402 72.2509 30.6902C72.7209 30.0402 72.9609 29.2102 72.9609 28.2202C72.9609 26.5402 71.8509 25.2902 69.6209 24.4502C67.3909 23.6102 64.2909 22.7802 60.3209 21.9402C58.7009 21.5702 57.1109 21.1402 55.5709 20.6402C54.7309 20.3702 53.9509 20.0402 53.2109 19.6802V26.5702H57.1009C57.1009 27.7802 57.3509 28.8102 57.8509 29.6702Z" fill="#F19000"/>
<path d="M77.8495 1.37988C78.4495 1.81988 78.9995 2.29989 79.5195 2.82989C79.8795 3.18989 80.2095 3.58989 80.5195 3.99989C80.7095 4.24989 80.9094 4.50989 81.0894 4.78989C81.2494 5.03989 81.3994 5.29989 81.5394 5.56989C81.9794 6.40989 82.3394 7.33989 82.5894 8.36989C82.5894 8.36989 82.5894 8.37988 82.5894 8.38988V8.40989C82.7894 9.21989 82.9195 10.0999 82.9995 11.0299H72.3994C72.2994 9.66988 71.9294 8.57988 71.3094 7.77988C70.9494 7.31988 70.4995 6.94988 69.9695 6.66988C69.7695 6.55988 69.5594 6.46988 69.3394 6.37988C68.0194 5.81988 66.4994 5.52988 64.7894 5.52988C64.3994 5.52988 63.9795 5.54989 63.5495 5.57989C63.2895 5.59989 63.0295 5.61989 62.7495 5.64989C62.0195 5.72989 61.3495 5.89989 60.7495 6.15989C60.6995 6.17989 60.6595 6.20989 60.6095 6.22989C60.0695 6.48989 59.5995 6.83989 59.2195 7.28989C58.7995 7.78989 58.5894 8.45989 58.5894 9.28989C58.5894 10.2899 58.9495 11.0999 59.6895 11.7299C59.8195 11.8399 59.9595 11.9399 60.1095 12.0399C60.6095 12.3999 61.1994 12.7199 61.8694 12.9999C62.0894 13.0899 62.3195 13.1799 62.5495 13.2599C62.9995 13.4099 63.4895 13.5499 63.9895 13.6899C64.5295 13.8399 65.0995 13.9799 65.6895 14.1199C65.9795 14.1899 66.2794 14.2499 66.5894 14.3199C66.9994 14.3999 67.4195 14.4999 67.8295 14.5799C68.6395 14.7499 69.4494 14.9299 70.2794 15.1199C70.5894 15.1899 70.8995 15.2599 71.2195 15.3299C71.5495 15.4099 71.8794 15.4899 72.1994 15.5699C73.4794 15.8899 74.7295 16.2499 75.9695 16.6699C76.7195 16.9299 77.4295 17.2199 78.0995 17.5599C78.8095 17.9099 79.4694 18.3099 80.0894 18.7599C80.3894 18.9699 80.6794 19.1999 80.9494 19.4499C81.7594 20.1699 82.4495 21.0199 82.9895 21.9799C83.0295 22.0499 83.0695 22.1299 83.0995 22.1999C83.7595 23.4399 84.0894 24.9499 84.0894 26.7299C84.0894 29.3999 83.5494 31.6299 82.4794 33.4399C82.2194 33.8799 81.9494 34.2899 81.6494 34.6799C81.3494 35.0899 81.0194 35.4699 80.6694 35.8299C79.9594 36.5799 79.1594 37.2399 78.2794 37.7999C77.0394 38.5899 75.6595 39.2099 74.1595 39.6599C73.5795 39.8399 72.9695 39.9899 72.3495 40.1099C71.7995 40.2199 71.2595 40.3099 70.7095 40.3999C70.1095 40.4899 69.4995 40.5599 68.8895 40.6199C67.7895 40.7199 66.6794 40.7799 65.5594 40.7799C63.1994 40.7799 60.8994 40.5499 58.6494 40.0699C56.6194 39.6399 54.8195 38.9299 53.1895 37.9899V79.0099H112.909V1.37988H77.8295H77.8495Z" fill="#F19000"/>
<path d="M47.0991 74.94C47.3991 74.77 47.6491 74.54 47.8391 74.27C48.0291 73.99 48.1691 73.68 48.2691 73.32C48.3591 72.96 48.4091 72.59 48.4091 72.21C48.4091 71.93 48.3791 71.65 48.3091 71.34C48.2491 71.04 48.1491 70.76 48.0091 70.52C47.8691 70.27 47.6891 70.06 47.4591 69.9C47.2291 69.73 46.9391 69.65 46.5891 69.65C45.9991 69.65 45.5591 70.04 45.2691 70.82C44.9791 71.6 44.6791 72.68 44.3891 74.07C44.2591 74.64 44.1091 75.2 43.9291 75.73C43.7591 76.27 43.5291 76.75 43.2491 77.17C42.9691 77.59 42.6091 77.93 42.1791 78.19C41.7491 78.45 41.2191 78.58 40.5991 78.58C39.6791 78.58 38.9291 78.4 38.3491 78.05C37.7591 77.69 37.2991 77.22 36.9591 76.63C36.6191 76.04 36.3791 75.38 36.2491 74.65C36.1091 73.92 36.0391 73.16 36.0391 72.39C36.0391 71.62 36.1091 70.87 36.2591 70.15C36.4091 69.42 36.6591 68.78 36.9991 68.21C37.3491 67.64 37.8091 67.17 38.3891 66.79C38.9691 66.42 39.6891 66.19 40.5691 66.12V69.83C39.8191 69.89 39.3091 70.17 39.0391 70.68C38.7691 71.19 38.6391 71.8 38.6391 72.49C38.6391 72.71 38.6491 72.95 38.6791 73.2C38.7091 73.45 38.7691 73.69 38.8591 73.9C38.9491 74.11 39.0891 74.29 39.2591 74.44C39.4291 74.59 39.6691 74.66 39.9591 74.66C40.3091 74.66 40.5891 74.53 40.8091 74.27C41.0291 74.01 41.2091 73.68 41.3491 73.27C41.4891 72.86 41.6091 72.39 41.7191 71.86C41.8291 71.33 41.9491 70.79 42.0791 70.24C42.2091 69.67 42.3691 69.12 42.5491 68.58C42.7291 68.04 42.9791 67.56 43.2791 67.14C43.5791 66.72 43.9591 66.38 44.4091 66.12C44.8591 65.86 45.4091 65.73 46.0691 65.73C46.9991 65.73 47.7891 65.92 48.4191 66.29C49.0491 66.67 49.5591 67.16 49.9491 67.76C50.3391 68.36 50.5991 69.06 50.7591 69.83C50.9091 70.61 50.9891 71.4 50.9891 72.21C50.9891 73.02 50.9091 73.84 50.7391 74.63C50.5791 75.42 50.2991 76.12 49.9191 76.73C49.5291 77.34 49.0291 77.85 48.3891 78.24C47.7591 78.64 46.9691 78.85 46.0091 78.89V75.18C46.4291 75.18 46.7891 75.09 47.0891 74.92" fill="#F19000"/>
<path d="M39.7498 55.8301C39.2398 56.3001 38.9798 57.0101 38.9798 57.9601C38.9798 58.5801 39.0898 59.1001 39.2998 59.5101C39.5098 59.9201 39.7698 60.2501 40.0798 60.5001C40.3898 60.7501 40.7198 60.9201 41.0698 61.0201C41.4198 61.1201 41.7298 61.1801 41.9998 61.2001V54.8501C41.0098 55.0301 40.2598 55.3601 39.7398 55.8201M47.2198 60.2501C47.7898 59.6601 48.0698 58.8201 48.0698 57.7201C48.0698 56.9301 47.8698 56.2601 47.4798 55.6901C47.0898 55.1201 46.6698 54.7701 46.2298 54.6501V51.2101C47.9298 51.7601 49.1498 52.6001 49.8798 53.7401C50.6098 54.8801 50.9798 56.2501 50.9798 57.8601C50.9798 58.9801 50.7998 59.9801 50.4398 60.8801C50.0798 61.7801 49.5698 62.5401 48.9098 63.1601C48.2498 63.7801 47.4598 64.2701 46.5498 64.6001C45.6298 64.9401 44.6198 65.1101 43.5198 65.1101C42.4198 65.1101 41.4698 64.9301 40.5498 64.5801C39.6298 64.2401 38.8398 63.7401 38.1698 63.1001C37.4998 62.4601 36.9698 61.6901 36.5898 60.8101C36.1998 59.9201 36.0098 58.9401 36.0098 57.8501C36.0098 56.6401 36.2398 55.5901 36.7098 54.6901C37.1798 53.7901 37.7998 53.0501 38.5898 52.4801C39.3798 51.9101 40.2798 51.4901 41.2798 51.2301C42.2898 50.9801 43.3398 50.8801 44.4398 50.9601V61.2101C45.7098 61.1501 46.6198 60.8301 47.1898 60.2501" fill="#F19000"/>
<path d="M36.4191 46.1199H39.0591V46.0599C38.6191 45.8799 38.2091 45.6299 37.8391 45.3199C37.4591 45.0099 37.1391 44.6499 36.8791 44.2499C36.6091 43.8499 36.4091 43.4199 36.2591 42.9599C36.1091 42.4999 36.0391 42.0299 36.0391 41.5299C36.0391 41.2699 36.0891 40.9899 36.1791 40.6799H39.8091C39.7691 40.8599 39.7391 41.0899 39.7091 41.3399C39.6791 41.5999 39.6691 41.8399 39.6691 42.0799C39.6691 42.7899 39.7891 43.3999 40.0291 43.8899C40.2691 44.3899 40.5891 44.7799 40.9991 45.0799C41.4091 45.3799 41.8891 45.5999 42.4391 45.7299C42.9891 45.8599 43.5791 45.9199 44.2191 45.9199H50.6191V49.8199H36.4091V46.1099L36.4191 46.1199Z" fill="#F19000"/>
<path d="M34.8095 35.6799H50.6295V39.5799H34.8095V35.6799ZM34.2295 39.5899H31.0195V35.6899H34.2295V39.5899Z" fill="#F19000"/>
<path d="M50.6298 30.75H31.0098V34.65H50.6298V30.75Z" fill="#F19000"/>
<path d="M50.6299 20.0098H48.6499V20.0898C49.4699 20.5798 50.0699 21.2298 50.4399 22.0098C50.7999 22.7998 50.9899 23.6098 50.9899 24.4298C50.9899 25.4698 50.8499 26.3298 50.5799 26.9998C50.3099 27.6698 49.9199 28.1998 49.4099 28.5798C48.9099 28.9698 48.2899 29.2398 47.5699 29.3898C46.8499 29.5498 46.0399 29.6198 45.1699 29.6198H36.4299V25.7198H44.4499C45.6199 25.7198 46.4999 25.5398 47.0699 25.1698C47.6499 24.8098 47.9399 24.1498 47.9399 23.2198C47.9399 22.1598 47.6299 21.3898 46.9899 20.9098C46.3599 20.4298 45.3199 20.1998 43.8699 20.1998H36.4199V16.2998H50.6299V20.0098Z" fill="#F19000"/>
<path d="M44.0191 6.41014C44.0991 6.65014 44.1691 6.92013 44.2191 7.20013C44.2791 7.49013 44.3191 7.78014 44.3591 8.10014C44.3891 8.41014 44.4391 8.72014 44.4891 9.03014C44.5491 9.32014 44.6191 9.61014 44.7091 9.90014C44.7991 10.1801 44.9291 10.4301 45.0791 10.6401C45.2391 10.8501 45.4291 11.0201 45.6691 11.1501C45.9091 11.2801 46.2091 11.3401 46.5791 11.3401C46.9291 11.3401 47.2191 11.2801 47.4591 11.1501C47.6991 11.0201 47.8891 10.8501 48.0191 10.6301C48.1591 10.4101 48.2491 10.1501 48.3091 9.86014C48.3691 9.57014 48.3891 9.26013 48.3891 8.95013C48.3891 8.18013 48.2591 7.59014 47.9991 7.16014C47.7491 6.74014 47.4391 6.43014 47.0791 6.22014C46.7191 6.02014 46.3591 5.90014 45.9891 5.85014C45.6291 5.80014 45.3291 5.78014 45.1091 5.78014H43.6491C43.7991 5.94014 43.9091 6.15014 43.9891 6.40014M38.5091 14.1201C37.8991 13.7201 37.4191 13.2001 37.0491 12.5801C36.6791 11.9601 36.4191 11.2601 36.2691 10.4801C36.1091 9.70014 36.0391 8.92013 36.0391 8.13013C36.0391 7.41013 36.0891 6.69014 36.1891 5.96014C36.2891 5.23014 36.4891 4.56013 36.7791 3.95013C37.0691 3.35013 37.4791 2.85014 37.9991 2.47014C38.5191 2.08014 39.2091 1.89014 40.0691 1.89014H47.4591C48.0991 1.89014 48.7191 1.85014 49.2991 1.78014C49.8891 1.70014 50.3291 1.58014 50.6191 1.39014V5.35014C50.3991 5.42014 50.1791 5.48014 49.9491 5.53014C49.7191 5.58014 49.4891 5.61013 49.2491 5.63013C49.8891 6.25013 50.3391 6.99014 50.5991 7.83014C50.8491 8.67014 50.9891 9.53014 50.9891 10.4101C50.9891 11.0901 50.9091 11.7201 50.7391 12.3101C50.5791 12.9001 50.3191 13.4101 49.9691 13.8501C49.6191 14.2901 49.1791 14.6401 48.6491 14.8801C48.1191 15.1301 47.4891 15.2501 46.7491 15.2501C45.9391 15.2501 45.2791 15.1101 44.7591 14.8301C44.2391 14.5501 43.8191 14.1801 43.5091 13.7301C43.1991 13.2801 42.9591 12.7701 42.8091 12.1901C42.6491 11.6101 42.5291 11.0301 42.4391 10.4501C42.3491 9.86013 42.2791 9.28014 42.2191 8.72014C42.1591 8.15014 42.0791 7.65014 41.9691 7.21014C41.8591 6.77014 41.6991 6.42014 41.4891 6.16014C41.2791 5.90014 40.9691 5.79013 40.5691 5.81013C40.1491 5.81013 39.8091 5.88014 39.5691 6.01014C39.3191 6.15014 39.1291 6.33013 38.9891 6.56013C38.8491 6.79013 38.7591 7.06014 38.7191 7.36014C38.6691 7.66014 38.6491 7.99013 38.6491 8.34013C38.6491 9.11013 38.8091 9.71014 39.1391 10.1501C39.4691 10.5901 40.0191 10.8501 40.7891 10.9201V14.8201C39.8691 14.7601 39.1091 14.5301 38.5091 14.1301" fill="#F19000"/>
</svg>
