<svg width="242" height="80" viewBox="0 0 242 80" fill="none" xmlns="http://www.w3.org/2000/svg">
<path fill-rule="evenodd" clip-rule="evenodd" d="M140.84 18.1201L133.25 38.4401H137.4L138.84 34.6601H147.08L148.52 38.4401H153.01L145.31 18.1201M145.67 30.9901H140.19L142.9 23.1201H142.96L145.67 30.9901Z" fill="#F19000"/>
<path fill-rule="evenodd" clip-rule="evenodd" d="M153.721 31.47C153.721 35.76 156.371 38.72 160.551 38.72C161.961 38.72 163.341 38.38 164.611 37.05H164.671V38.15C164.671 40.66 163.261 41.42 161.341 41.42C160.131 41.42 159.031 41.1101 157.841 40.2101L155.331 43.06C157.451 44.67 159.991 44.92 161.571 44.92C164.871 44.92 168.821 43.82 168.821 38.12V24.3201H165.351L165.071 26.16H165.011C164.081 24.86 162.611 24.04 160.521 24.04C156.511 24.04 153.721 27.0601 153.721 31.4601M164.671 31.3801C164.671 33.8101 163.261 35.05 161.341 35.05C159.201 35.05 157.901 33.5001 157.901 31.3801C157.901 29.2601 159.201 27.7401 161.341 27.7401C163.321 27.7401 164.671 29.0401 164.671 31.3801Z" fill="#F19000"/>
<path fill-rule="evenodd" clip-rule="evenodd" d="M171.27 31.3798C171.27 35.9798 174.54 38.7198 178.75 38.7198C181.6 38.7198 184.34 37.4498 185.58 34.7698L181.91 33.3298C181.26 35.1098 179.71 35.3898 178.8 35.3898C177.45 35.3898 175.75 34.7398 175.56 32.5698H185.72C185.75 32.2598 185.8 32.0098 185.8 31.3298C185.8 26.3098 182.61 24.0498 178.86 24.0498C174.88 24.0498 171.27 26.5598 171.27 31.3898M181.57 29.9098H175.56C175.87 28.0498 177.42 27.3698 178.75 27.3698C179.99 27.3698 181.46 27.9898 181.57 29.9098Z" fill="#F19000"/>
<path fill-rule="evenodd" clip-rule="evenodd" d="M192.159 26.6401H192.099L191.819 24.3301H188.289V38.4401H192.439V30.4001C192.439 28.5701 193.989 27.7501 195.209 27.7501C196.199 27.7501 197.379 28.2601 197.379 30.1201V38.4501H201.559V30.1001C201.559 25.5801 199.249 24.0601 196.589 24.0601C194.589 24.0601 193.169 24.9401 192.159 26.6601" fill="#F19000"/>
<path fill-rule="evenodd" clip-rule="evenodd" d="M203.789 31.3501C203.789 35.3001 206.839 38.72 211.349 38.72C213.889 38.72 216.599 37.65 218.149 34.66L214.199 33.25C213.779 34.38 212.619 35.05 211.239 35.05C208.809 35.05 207.969 33.05 207.969 31.3C207.969 29.55 208.929 27.7401 211.189 27.7401C212.599 27.7401 213.479 28.4201 213.899 29.4901L217.819 28.08C216.519 25.03 214.039 24.04 211.499 24.04C206.789 24.04 203.789 27.4301 203.789 31.3501Z" fill="#F19000"/>
<path d="M224.111 24.3301H219.961V38.4401H224.111V24.3301Z" fill="#F19000"/>
<path fill-rule="evenodd" clip-rule="evenodd" d="M219.391 20.2301C219.391 21.7001 220.571 22.8801 222.041 22.8801C223.511 22.8801 224.661 21.6901 224.661 20.2301C224.661 18.7701 223.471 17.5801 222.041 17.5801C220.611 17.5801 219.391 18.7701 219.391 20.2301Z" fill="#F19000"/>
<path fill-rule="evenodd" clip-rule="evenodd" d="M226.561 31.3298C226.561 35.7598 229.381 38.7198 233.361 38.7198C235.451 38.7198 236.921 37.8998 237.851 36.5998H237.911L238.191 38.4398H241.661V24.3298H237.511V25.7098H237.451C236.181 24.3798 234.801 24.0498 233.381 24.0498C229.231 24.0498 226.551 27.0098 226.551 31.3298M237.511 31.3598C237.511 33.7298 236.131 35.0598 234.151 35.0598C232.031 35.0598 230.741 33.5098 230.741 31.3898C230.741 29.2698 232.011 27.7498 234.181 27.7498C236.101 27.7498 237.511 28.9598 237.511 31.3598Z" fill="#F19000"/>
<path fill-rule="evenodd" clip-rule="evenodd" d="M133.48 52.3599C133.48 58.8499 137.88 62.7999 144.04 62.7999C147.62 62.7999 150.59 61.3299 152.37 58.9599V51.4199H143V55.0899H148.19V57.8799C147.15 58.7599 145.62 59.1199 144.04 59.1199C139.75 59.1199 137.63 56.1299 137.63 52.3499C137.63 48.5699 139.66 45.6099 143.81 45.6099C145.93 45.6099 147.65 46.6799 148.58 48.6899L152.39 47.1099C150.75 43.6699 147.48 41.9199 143.81 41.9199C137.69 41.9199 133.48 45.9299 133.48 52.3599Z" fill="#F19000"/>
<path fill-rule="evenodd" clip-rule="evenodd" d="M159.319 50.3901H159.259L158.979 48.4101H155.449V62.5201H159.599V54.3901C159.599 52.7001 161.239 51.7901 162.619 51.7901C162.959 51.7901 163.409 51.8501 163.809 51.9601L164.259 48.2601C163.719 48.1501 163.329 48.1201 163.019 48.1201C161.579 48.1201 160.419 48.6801 159.319 50.3801" fill="#F19000"/>
<path fill-rule="evenodd" clip-rule="evenodd" d="M172.64 42.2002L170.67 46.1502H173.8L177.08 42.2002" fill="#F19000"/>
<path fill-rule="evenodd" clip-rule="evenodd" d="M165.051 55.4101C165.051 59.8401 167.871 62.8001 171.851 62.8001C173.941 62.8001 175.411 61.9801 176.341 60.6801H176.401L176.681 62.5201H180.151V48.4101H176.001V49.7901H175.941C174.671 48.4601 173.291 48.1201 171.881 48.1201C167.731 48.1201 165.051 51.0801 165.051 55.4001M176.001 55.4401C176.001 57.8101 174.621 59.1401 172.641 59.1401C170.521 59.1401 169.231 57.5901 169.231 55.4701C169.231 53.3501 170.501 51.8301 172.671 51.8301C174.591 51.8301 176.001 53.0401 176.001 55.4401Z" fill="#F19000"/>
<path fill-rule="evenodd" clip-rule="evenodd" d="M184.449 46.4702V48.4202H182.279V52.1202H184.449V62.5302H188.629V52.1202H191.729V48.4202H188.629V47.0402C188.629 46.1402 189.389 45.6602 190.379 45.6602C190.829 45.6602 191.279 45.7202 192.019 46.0002V42.3302C191.369 42.0502 190.159 41.9302 189.339 41.9302C186.009 41.9302 184.459 43.9102 184.459 46.4702" fill="#F19000"/>
<path d="M198.4 48.4102H194.25V62.5202H198.4V48.4102Z" fill="#F19000"/>
<path fill-rule="evenodd" clip-rule="evenodd" d="M193.68 44.3199C193.68 45.7899 194.86 46.9699 196.33 46.9699C197.8 46.9699 198.96 45.7899 198.96 44.3199C198.96 42.8499 197.77 41.6699 196.33 41.6699C194.89 41.6699 193.68 42.8599 193.68 44.3199Z" fill="#F19000"/>
<path fill-rule="evenodd" clip-rule="evenodd" d="M200.721 55.4401C200.721 59.3901 203.771 62.8101 208.281 62.8101C210.821 62.8101 213.531 61.7401 215.081 58.7501L211.131 57.3401C210.701 58.4701 209.551 59.1501 208.171 59.1501C205.741 59.1501 204.901 57.1501 204.901 55.4001C204.901 53.5601 205.861 51.8401 208.121 51.8401C209.531 51.8401 210.411 52.5201 210.831 53.5901L214.751 52.1801C213.451 49.1301 210.971 48.1401 208.431 48.1401C203.721 48.1401 200.721 51.5301 200.721 55.4501" fill="#F19000"/>
<path fill-rule="evenodd" clip-rule="evenodd" d="M216.231 55.4101C216.231 59.8401 219.051 62.8001 223.031 62.8001C225.121 62.8001 226.591 61.9801 227.521 60.6801H227.581L227.861 62.5201H231.331V48.4101H227.181V49.7901H227.121C225.851 48.4601 224.471 48.1201 223.051 48.1201C218.901 48.1201 216.221 51.0801 216.221 55.4001M227.181 55.4401C227.181 57.8101 225.801 59.1401 223.821 59.1401C221.701 59.1401 220.411 57.5901 220.411 55.4701C220.411 53.3501 221.681 51.8301 223.851 51.8301C225.771 51.8301 227.181 53.0401 227.181 55.4401Z" fill="#F19000"/>
<path fill-rule="evenodd" clip-rule="evenodd" d="M8.99922 18.1201L0.449219 38.4401H1.12922L3.49922 32.7701H15.1292L17.5292 38.4401H18.2592L9.70922 18.1201M14.8792 32.1101H3.78922L9.31922 18.9301H9.37922L14.8792 32.1101Z" fill="#F19000"/>
<path fill-rule="evenodd" clip-rule="evenodd" d="M29.8501 18.1201L21.5801 38.4401H23.2501L25.3401 33.2201H35.9801L38.1301 38.4401H39.9301L31.6301 18.1201M35.4101 31.7201H25.9501L30.6301 19.7801H30.6901L35.4001 31.7201H35.4101Z" fill="#F19000"/>
<path fill-rule="evenodd" clip-rule="evenodd" d="M51.4503 18.1201L43.3203 38.4401H45.4603L47.4403 33.5001H57.6003L59.6003 38.4401H61.9403L53.7603 18.1201M56.8703 31.5801H48.2103L52.5003 20.4301H52.5603L56.8803 31.5801H56.8703Z" fill="#F19000"/>
<path fill-rule="evenodd" clip-rule="evenodd" d="M73.3103 18.1201L65.3203 38.4401H67.9703L69.7803 33.8101H79.4903L81.3503 38.4401H84.2303L76.1603 18.1201M78.5903 31.4401H70.7203L74.6203 21.1101H74.6803L78.6003 31.4401H78.5903Z" fill="#F19000"/>
<path fill-rule="evenodd" clip-rule="evenodd" d="M95.4696 18.1201L87.5996 38.4401H90.7296L92.4196 34.0901H101.65L103.37 38.4401H106.78L98.8496 18.1201M100.58 31.2701H93.5296L97.0296 21.7601H97.0896L100.59 31.2701H100.58Z" fill="#F19000"/>
<path fill-rule="evenodd" clip-rule="evenodd" d="M117.96 18.1201L110.23 38.4401H113.87L115.42 34.3801H124.17L125.75 38.4401H129.7L121.88 18.1201M122.93 31.1301H116.67L119.77 22.4101H119.83L122.93 31.1301Z" fill="#F19000"/>
<path fill-rule="evenodd" clip-rule="evenodd" d="M0.279297 52.1798C0.279297 58.0798 4.4293 62.6498 10.1293 62.6498C14.1093 62.6498 16.8493 60.4498 18.3393 57.2898V51.9798H9.4493V52.6298H17.6393V57.0298C16.9593 58.6098 14.6493 61.9998 10.1593 61.9998C5.1393 61.9998 0.989296 57.9598 0.989296 52.2398C0.989296 46.8498 4.5993 42.4198 10.1393 42.4198C14.2893 42.4198 16.8293 44.9898 17.5893 47.0798L18.2093 46.8298C16.9093 43.7498 13.9193 41.7798 10.1093 41.7798C4.3793 41.7798 0.289299 46.2998 0.289299 52.1898" fill="#F19000"/>
<path fill-rule="evenodd" clip-rule="evenodd" d="M21.4905 52.1798C21.4905 58.2498 25.6405 62.6498 31.4505 62.6498C35.0905 62.6498 38.0005 60.9298 39.8305 57.7098V51.7298H30.6605V53.2298H38.1405V57.3798C37.1505 59.3798 34.7005 61.1598 31.4205 61.1598C26.7105 61.1598 23.1805 57.5198 23.1805 52.2098C23.1805 46.8998 26.4805 43.2598 31.3905 43.2598C35.0905 43.2598 37.2905 45.4598 38.1305 47.4598L39.6805 46.8698C38.5505 44.1298 35.5905 41.7598 31.4105 41.7598C25.8505 41.7598 21.4805 45.9398 21.4805 52.1698" fill="#F19000"/>
<path fill-rule="evenodd" clip-rule="evenodd" d="M43.2991 52.18C43.2991 58.33 47.4991 62.65 53.3691 62.65C57.0091 62.65 59.9191 60.98 61.7491 57.94V51.65H52.5191V53.57H59.5491V57.47C58.5591 59.25 56.2791 60.74 53.3391 60.74C48.7091 60.74 45.4691 57.21 45.4691 52.22C45.4691 47.23 48.5191 43.72 53.2891 43.72C56.6791 43.72 58.7591 45.7 59.6391 47.7L61.6391 46.91C60.3991 44.03 57.3791 41.77 53.3091 41.77C47.6391 41.77 43.2891 45.92 43.2891 52.18" fill="#F19000"/>
<path fill-rule="evenodd" clip-rule="evenodd" d="M65.3206 52.21C65.3206 58.45 69.5505 62.65 75.5105 62.65C79.1205 62.65 82.0605 61.04 83.8605 58.16V51.56H74.6306V53.93H81.1805V57.52C80.1605 59.07 78.1005 60.28 75.5105 60.28C70.9705 60.28 68.0005 56.92 68.0005 52.21C68.0005 47.5 70.7905 44.14 75.3905 44.14C78.4405 44.14 80.4706 45.89 81.3506 47.89L83.8006 46.9C82.4706 43.88 79.3705 41.77 75.3905 41.77C69.6005 41.77 65.3105 45.89 65.3105 52.21" fill="#F19000"/>
<path fill-rule="evenodd" clip-rule="evenodd" d="M87.9199 52.2098C87.9199 58.5298 92.2099 62.6498 98.2499 62.6498C101.83 62.6498 104.8 61.0698 106.58 58.3598V51.4398H97.2899V54.2598H103.41V57.5898C102.37 58.9198 100.47 59.8498 98.2199 59.8498C93.7599 59.8498 91.0799 56.6098 91.0799 52.1998C91.0799 47.7898 93.6199 44.5798 98.0799 44.5798C100.82 44.5798 102.74 46.0998 103.64 48.1098L106.55 46.9198C105.11 43.7598 101.98 41.7598 98.0799 41.7598C92.1799 41.7598 87.9199 45.8198 87.9199 52.1998" fill="#F19000"/>
<path fill-rule="evenodd" clip-rule="evenodd" d="M110.41 52.2098C110.41 58.6198 114.76 62.6498 120.85 62.6498C124.44 62.6498 127.4 61.1198 129.18 58.5898V51.3598H119.87V54.6098H125.51V57.6598C124.47 58.7598 122.77 59.4098 120.85 59.4098C116.48 59.4098 114.08 56.3098 114.08 52.2098C114.08 48.1098 116.37 45.0098 120.66 45.0098C123.09 45.0098 124.92 46.3098 125.82 48.3098L129.18 46.9298C127.66 43.6298 124.44 41.7598 120.66 41.7598C114.65 41.7598 110.41 45.7998 110.41 52.1998" fill="#F19000"/>
</svg>
